<svg xmlns="http://www.w3.org/2000/svg" width="26" height="22" viewBox="0 0 26 22" fill="white">
	<path d="M5.72135 0.600098C4.93009 0.600098 4.33333 1.46676 4.33333 1.46676C-0.203667 1.46676 2.29947 8.70854 0.966536 9.77627C0.966536 9.77627 1.7836 10.7868 4.33333 10.7868V11.6518C3.6296 13.4874 0 12.8088 0 16.2001H4.55L5.2 13.6001L4.76667 12.7334H6.5L6.06667 13.6001L6.71667 16.2001H6.95365C7.56378 15.8309 9.53333 14.807 9.53333 14.807C9.06273 14.3043 8.38385 13.4361 8.13685 12.7774C7.59605 12.5062 7.13873 12.1874 6.93333 11.6518V10.7767C7.098 10.7767 7.58356 10.7386 7.7543 10.7005C7.36776 10.1051 7.04167 8.74801 7.04167 7.98708C7.04167 6.05181 7.87509 4.46 9.25742 3.46247C8.84056 1.86693 7.91489 0.600098 5.72135 0.600098ZM19.9333 0.600098C18.0067 0.600098 16.8238 1.92541 16.5378 3.66221C17.9383 4.41274 18.85 6.03079 18.85 8.06833C18.85 8.70533 18.7014 9.31826 18.5402 9.7932C18.6 10.0281 18.6333 10.29 18.6333 10.5803C18.6333 12.721 16.4667 14.8561 16.4667 14.8561C16.9373 15.0615 18.4429 15.8266 19.0582 16.2001H19.0667L19.5 12.7334L19.0667 11.8668H20.8L20.3667 12.7334L20.8 16.2001H26C26 11.6501 22.3054 12.9501 21.6667 11.0001V9.7001C21.9544 9.55536 22.6396 8.55883 22.7263 7.78057C22.9516 7.76323 23.4 7.21237 23.4 6.71924C23.4 6.22611 23.2432 6.01863 23.1072 5.9389C23.1072 5.9389 23.4 5.2879 23.4 4.5001C23.4 2.9219 22.9736 1.46676 21.6667 1.46676C21.6667 1.46676 21.2914 0.600098 19.9333 0.600098ZM13 4.06676C10.6669 4.06676 8.775 5.47201 8.775 7.98708C8.775 9.05048 9.37083 9.87953 9.37083 9.87953C9.37083 9.87953 9.1 10.0126 9.1 10.5803C9.1 11.6836 9.80925 11.948 9.80925 11.948C9.90804 12.8216 11.2667 14.1011 11.2667 14.1011V15.5619C10.5369 17.7511 6.06667 16.3084 6.06667 21.4001H12.1333L12.5667 17.9334L12.1333 17.0668H13.8667L13.4333 17.9334L13.8667 21.4001H19.9333C19.9333 16.2911 15.4631 17.7511 14.7333 15.5619V14.1011C14.7333 14.1011 16.092 12.8216 16.1908 11.948C16.1908 11.948 16.9 11.4582 16.9 10.5803C16.9 9.97191 16.6292 9.87953 16.6292 9.87953C16.6292 9.87953 17.1167 8.95233 17.1167 8.06833C17.1167 6.29599 16.2275 4.93343 14.7333 4.93343C14.7333 4.93343 14.0989 4.06676 13 4.06676Z" />
</svg>