<svg xmlns="http://www.w3.org/2000/svg" width="50" height="50" viewBox="0 0 50 50" fill="white">
	<path d="M34.308 46.0324C38.5473 44.1562 42.1206 41.0429 44.5596 37.1005C46.9985 33.1581 48.1892 28.5707 47.9756 23.9398C47.7619 19.3089 46.1538 14.8507 43.3621 11.1496C40.5705 7.44862 36.7256 4.67757 32.3316 3.19982C27.9376 1.72208 23.1996 1.60664 18.7389 2.86862C14.2781 4.1306 10.3028 6.7111 7.33423 10.2718C4.36564 13.8324 2.54233 18.2071 2.10335 22.8221C1.66437 27.4371 2.63023 32.077 4.87427 36.1335L6.70715 35.1196C4.66747 31.4325 3.78958 27.2151 4.18858 23.0204C4.58758 18.8257 6.24484 14.8495 8.94308 11.6131C11.6413 8.3767 15.2546 6.0312 19.3091 4.88415C23.3636 3.7371 27.6701 3.84203 31.6639 5.1852C35.6577 6.52836 39.1525 9.04705 41.6899 12.411C44.2273 15.775 45.6889 19.8272 45.8831 24.0364C46.0774 28.2455 44.9951 32.4151 42.7783 35.9985C40.5614 39.5818 37.3135 42.4117 33.4604 44.1169L34.308 46.0324Z" />
</svg>