<svg xmlns="http://www.w3.org/2000/svg" width="80" height="80" viewBox="0 0 80 80" fill="none">
	<circle cx="40" cy="40" r="40" fill="black" fill-opacity="0.7" />
	<path fill-rule="evenodd" clip-rule="evenodd" d="M40 77C60.4345 77 77 60.4345 77 40C77 19.5655 60.4345 3 40 3C19.5655 3 3 19.5655 3 40C3 60.4345 19.5655 77 40 77ZM40 80C62.0914 80 80 62.0914 80 40C80 17.9086 62.0914 0 40 0C17.9086 0 0 17.9086 0 40C0 62.0914 17.9086 80 40 80Z" fill="white" />
	<path d="M36.06 28.9125C34.7279 28.0799 33 29.0376 33 30.6085V50.0582C33 51.629 34.7279 52.5867 36.06 51.7542L51.6197 42.0293C52.8731 41.246 52.8731 39.4207 51.6197 38.6373L36.06 28.9125Z" fill="white" />
</svg>