<svg xmlns="http://www.w3.org/2000/svg" width="15" height="16" viewBox="0 0 15 16" fill="#1A2C37">
	<path d="M9.75 15.5C10.1642 15.5 10.5 15.1642 10.5 14.75C10.5 14.3358 10.1642 14 9.75 14H3.5C2.39543 14 1.5 13.1046 1.5 12V4C1.5 2.89543 2.39543 2 3.5 2H9.75C10.1642 2 10.5 1.66421 10.5 1.25C10.5 0.835786 10.1642 0.5 9.75 0.5H3.5C1.567 0.5 0 2.067 0 4V12C0 13.933 1.567 15.5 3.5 15.5H9.75ZM10.7413 4.1989C11.0457 3.91795 11.5201 3.93693 11.8011 4.24129L14.8011 7.49129C15.0663 7.77859 15.0663 8.22142 14.8011 8.50871L11.8011 11.7587C11.5201 12.0631 11.0457 12.0821 10.7413 11.8011C10.4369 11.5202 10.4179 11.0457 10.6989 10.7413L12.537 8.75H4.75C4.33579 8.75 4 8.41422 4 8C4 7.58579 4.33579 7.25 4.75 7.25H12.537L10.6989 5.25871C10.4179 4.95435 10.4369 4.47985 10.7413 4.1989Z" />
</svg>