<svg xmlns="http://www.w3.org/2000/svg" width="19" height="14" viewBox="0 0 19 14">
	<rect width="19" height="14" fill="#E92434" />
	<path fill-rule="evenodd" clip-rule="evenodd" d="M12.907 7.53798L12.0759 8.57747L12.1325 7.23129L10.9173 6.7371L12.1759 6.37664L12.256 5.03173L12.9773 6.15514L14.2419 5.81813L13.4291 6.87289L14.1306 8.00952L12.907 7.53798Z" fill="white" />
	<path fill-rule="evenodd" clip-rule="evenodd" d="M11.8087 9.57886C11.0637 10.5652 9.90131 11.1997 8.59525 11.1997C6.34665 11.1997 4.5238 9.31934 4.5238 6.99976C4.5238 4.68018 6.34665 2.7998 8.59525 2.7998C9.90152 2.7998 11.0641 3.43457 11.8091 4.42114C11.2342 3.98999 10.5113 3.73315 9.72617 3.73315C7.85236 3.73315 6.33331 5.1958 6.33331 6.99976C6.33331 8.80396 7.85236 10.2666 9.72617 10.2666C10.5111 10.2666 11.2339 10.0098 11.8087 9.57886Z" fill="white" />
</svg>