<svg xmlns="http://www.w3.org/2000/svg" width="129" height="103" viewBox="0 0 129 103" fill="none">
	<path d="M86.8039 84.4981C94.3565 67.431 109.239 56.2238 112.222 44.7951C115.753 31.2678 96.6685 31.6826 96.6685 31.6826C106.225 19.4589 106.736 10.4431 99.9055 7.23522C85.4168 0.431504 34.5527 17.9598 15.5941 52.2093C8.01189 65.9067 4.74539 72.1374 9.52359 77.8674C14.3018 83.5973 86.8039 84.4981 86.8039 84.4981Z" fill="white" />
	<path d="M110.839 89.7762C119.268 79.4465 119.86 61.1994 105.068 58.6633C87.7312 55.6909 80.9484 72.2095 83.6861 79.3227C76.0554 78.7672 72.3271 80.1845 71.9221 83.2816C55.7189 82.1681 53.4994 89.7762 68.9781 89.7762H110.839Z" fill="white" />
	<path d="M44.0101 77.9729C43.8509 77.7997 43.9354 77.5188 44.1634 77.4628L59.3938 73.7205C59.4845 73.6982 59.5804 73.7186 59.6548 73.7756L65.1964 78.0354C65.3994 78.1913 65.3358 78.5129 65.0891 78.5794L48.8287 82.9707C48.7177 83.0007 48.5996 82.9664 48.5219 82.8816L44.0101 77.9729Z" fill="#B51D54" />
	<path d="M82.564 21.6602H20.0312C19.435 21.6602 18.9517 22.1448 18.9517 22.7427V60.3306C18.9517 60.9285 19.435 61.4132 20.0312 61.4132H82.564C83.1602 61.4132 83.6435 60.9285 83.6435 60.3306V22.7427C83.6435 22.1448 83.1602 21.6602 82.564 21.6602Z" fill="#253A4B" stroke="#253A4B" />
	<path d="M80.5097 24.4034H22.0853C21.4039 24.4034 20.8516 24.9574 20.8516 25.6407V57.4333C20.8516 58.1167 21.4039 58.6706 22.0853 58.6706H80.5097C81.1911 58.6706 81.7435 58.1167 81.7435 57.4333V25.6407C81.7435 24.9574 81.1911 24.4034 80.5097 24.4034Z" fill="white" />
	<path d="M40.6301 44.4163H24.3882C24.0824 44.4163 23.8345 44.6649 23.8345 44.9715C23.8345 45.2782 24.0824 45.5268 24.3882 45.5268H40.6301C40.9359 45.5268 41.1838 45.2782 41.1838 44.9715C41.1838 44.6649 40.9359 44.4163 40.6301 44.4163Z" fill="#DDE3E9" />
	<path d="M60.1945 26.6471H42.8452C42.5394 26.6471 42.2915 26.8957 42.2915 27.2024C42.2915 27.509 42.5394 27.7576 42.8452 27.7576H60.1945C60.5003 27.7576 60.7482 27.509 60.7482 27.2024C60.7482 26.8957 60.5003 26.6471 60.1945 26.6471Z" fill="#DDE3E9" />
	<path d="M60.1945 28.8684H42.8452C42.5394 28.8684 42.2915 29.117 42.2915 29.4237C42.2915 29.7304 42.5394 29.979 42.8452 29.979H60.1945C60.5003 29.979 60.7482 29.7304 60.7482 29.4237C60.7482 29.117 60.5003 28.8684 60.1945 28.8684Z" fill="#DDE3E9" />
	<path d="M60.1945 30.7192H42.8452C42.5394 30.7192 42.2915 30.9678 42.2915 31.2745C42.2915 31.5812 42.5394 31.8298 42.8452 31.8298H60.1945C60.5003 31.8298 60.7482 31.5812 60.7482 31.2745C60.7482 30.9678 60.5003 30.7192 60.1945 30.7192Z" fill="#DDE3E9" />
	<path d="M60.1945 32.9402H42.8452C42.5394 32.9402 42.2915 33.1888 42.2915 33.4955C42.2915 33.8021 42.5394 34.0507 42.8452 34.0507H60.1945C60.5003 34.0507 60.7482 33.8021 60.7482 33.4955C60.7482 33.1888 60.5003 32.9402 60.1945 32.9402Z" fill="#DDE3E9" />
	<path d="M40.5669 26.2771H23.7131C23.3724 26.2771 23.0962 26.5541 23.0962 26.8957V40.836C23.0962 41.1776 23.3724 41.4546 23.7131 41.4546H40.5669C40.9076 41.4546 41.1838 41.1776 41.1838 40.836V26.8957C41.1838 26.5541 40.9076 26.2771 40.5669 26.2771Z" fill="#DDE3E9" />
	<path d="M60.1314 39.6036H42.9084C42.5677 39.6036 42.2915 39.8806 42.2915 40.2223V40.8359C42.2915 41.1776 42.5677 41.4546 42.9084 41.4546H60.1314C60.4721 41.4546 60.7482 41.1776 60.7482 40.8359V40.2223C60.7482 39.8806 60.4721 39.6036 60.1314 39.6036Z" fill="#DDE3E9" />
	<path d="M45.7351 35.1616H42.9084C42.5677 35.1616 42.2915 35.4386 42.2915 35.7802V38.2448C42.2915 38.5865 42.5677 38.8634 42.9084 38.8634H45.7351C46.0758 38.8634 46.352 38.5865 46.352 38.2448V35.7802C46.352 35.4386 46.0758 35.1616 45.7351 35.1616Z" fill="#DDE3E9" />
	<path d="M50.534 35.1616H47.7072C47.3665 35.1616 47.0903 35.4386 47.0903 35.7802V38.2448C47.0903 38.5865 47.3665 38.8634 47.7072 38.8634H50.534C50.8747 38.8634 51.1508 38.5865 51.1508 38.2448V35.7802C51.1508 35.4386 50.8747 35.1616 50.534 35.1616Z" fill="#DDE3E9" />
	<path d="M55.3323 35.1616H52.5055C52.1649 35.1616 51.8887 35.4386 51.8887 35.7802V38.2448C51.8887 38.5865 52.1649 38.8634 52.5055 38.8634H55.3323C55.673 38.8634 55.9492 38.5865 55.9492 38.2448V35.7802C55.9492 35.4386 55.673 35.1616 55.3323 35.1616Z" fill="#DDE3E9" />
	<path d="M60.1311 35.1616H57.3044C56.9637 35.1616 56.6875 35.4386 56.6875 35.7802V38.2448C56.6875 38.5865 56.9637 38.8634 57.3044 38.8634H60.1311C60.4718 38.8634 60.748 38.5865 60.748 38.2448V35.7802C60.748 35.4386 60.4718 35.1616 60.1311 35.1616Z" fill="#DDE3E9" />
	<path d="M40.6301 48.8582H24.3882C24.0824 48.8582 23.8345 49.1068 23.8345 49.4134C23.8345 49.7201 24.0824 49.9687 24.3882 49.9687H40.6301C40.9359 49.9687 41.1838 49.7201 41.1838 49.4134C41.1838 49.1068 40.9359 48.8582 40.6301 48.8582Z" fill="#DDE3E9" />
	<path d="M40.6301 46.6371H24.3882C24.0824 46.6371 23.8345 46.8857 23.8345 47.1924C23.8345 47.499 24.0824 47.7476 24.3882 47.7476H40.6301C40.9359 47.7476 41.1838 47.499 41.1838 47.1924C41.1838 46.8857 40.9359 46.6371 40.6301 46.6371Z" fill="#DDE3E9" />
	<path d="M52.0117 77.3026L53.7827 80.1693C53.9631 80.4492 54.4122 80.5027 54.786 80.2887C54.9029 80.2216 55.0032 80.1331 55.0769 80.032L58.7923 77.1832C59.0289 76.8588 58.944 76.4839 58.6029 76.3456C58.4786 76.2952 58.3309 76.2816 58.1797 76.3066L52.6933 76.2887C52.2782 76.3577 51.9395 76.6939 51.937 77.0397C51.9361 77.1353 51.9617 77.225 52.0117 77.3026Z" fill="white" />
	<path d="M43.8335 42.7432H63.6886C64.0162 42.7432 64.2815 43.0058 64.2815 43.3293V55.9272C64.2815 56.2507 64.0162 56.513 63.6886 56.513H43.8335C43.506 56.513 43.2407 56.2507 43.2407 55.9272V43.3293C43.2407 43.0058 43.506 42.7432 43.8335 42.7432Z" fill="#DDE3E9" />
	<path fill-rule="evenodd" clip-rule="evenodd" d="M56.5293 44.8087L62.8044 54.4474H50.2539L56.5293 44.8087Z" fill="#2A91D0" />
	<path fill-rule="evenodd" clip-rule="evenodd" d="M50.2543 47.5627L55.7913 54.4477H44.7173L50.2543 47.5627Z" fill="#007BC7" />
	<path d="M47.8548 51.6939C46.7337 51.6939 45.8247 50.769 45.8247 49.6283C45.8247 48.4876 46.7337 47.5627 47.8548 47.5627C48.976 47.5627 49.8849 48.4876 49.8849 49.6283C49.8849 50.769 48.976 51.6939 47.8548 51.6939Z" fill="white" />
	<path d="M87.6565 70.7016L101.958 75.9468C102.198 76.0152 102.324 76.2809 102.24 76.5404L98.6232 86.7553C98.5393 87.0149 98.2768 87.1695 98.0369 87.1012L84.0821 81.7387C83.8421 81.6703 83.716 81.4046 83.7999 81.1454L87.0702 71.0474C87.1541 70.7882 87.4169 70.6332 87.6565 70.7016Z" fill="#DDE3E9" />
	<path d="M100.18 76.7607L94.5537 74.6507C94.3345 74.5685 94.0903 74.6801 94.0083 74.8999C93.9263 75.1198 94.0375 75.3647 94.2568 75.4469L99.8829 77.557C100.102 77.6392 100.346 77.5276 100.428 77.3077C100.51 77.0879 100.399 76.843 100.18 76.7607Z" fill="#B51D54" />
	<path d="M93.0594 74.0901L89.3945 72.7157C89.1753 72.6334 88.9311 72.745 88.8491 72.9649C88.7671 73.1847 88.8784 73.4296 89.0976 73.5119L92.7625 74.8864C92.9817 74.9686 93.2259 74.857 93.3079 74.6371C93.3899 74.4173 93.2786 74.1724 93.0594 74.0901Z" fill="#B51D54" />
	<path d="M98.9923 79.9457L93.3662 77.8357C93.147 77.7534 92.9028 77.865 92.8208 78.0849C92.7388 78.3047 92.85 78.5496 93.0693 78.6319L98.6954 80.7419C98.9146 80.8241 99.1588 80.7125 99.2408 80.4927C99.3228 80.2728 99.2115 80.0279 98.9923 79.9457Z" fill="#007BC7" />
	<path d="M91.8719 77.2751L88.207 75.9006C87.9878 75.8184 87.7436 75.9299 87.6616 76.1498C87.5796 76.3697 87.6909 76.6146 87.9101 76.6968L91.575 78.0713C91.7942 78.1535 92.0384 78.0419 92.1204 77.8221C92.2024 77.6022 92.0911 77.3573 91.8719 77.2751Z" fill="#007BC7" />
	<path d="M99.5861 78.3534L93.96 76.2434C93.7407 76.1611 93.4965 76.2727 93.4145 76.4926C93.3325 76.7125 93.4438 76.9573 93.663 77.0396L99.2891 79.1496C99.5084 79.2318 99.7526 79.1203 99.8346 78.9004C99.9166 78.6805 99.8053 78.4356 99.5861 78.3534Z" fill="#007BC7" />
	<path d="M97.8046 83.131L87.0195 79.0861C86.8003 79.0039 86.5561 79.1155 86.4741 79.3354C86.3921 79.5552 86.5034 79.8001 86.7226 79.8823L97.5076 83.9272C97.7269 84.0094 97.9711 83.8979 98.0531 83.678C98.1351 83.4581 98.0238 83.2132 97.8046 83.131Z" fill="#007BC7" />
	<path d="M92.4656 75.6828L88.8008 74.3083C88.5815 74.2261 88.3373 74.3377 88.2553 74.5575C88.1734 74.7774 88.2846 75.0223 88.5039 75.1045L92.1687 76.479C92.388 76.5612 92.6322 76.4497 92.7142 76.2298C92.7962 76.0099 92.6849 75.765 92.4656 75.6828Z" fill="#007BC7" />
	<path d="M98.3983 81.5381L87.6133 77.4932C87.394 77.411 87.1498 77.5226 87.0678 77.7425C86.9859 77.9623 87.0971 78.2072 87.3164 78.2895L98.1014 82.3343C98.3206 82.4165 98.5649 82.305 98.6468 82.0851C98.7288 81.8652 98.6176 81.6203 98.3983 81.5381Z" fill="#007BC7" />
	<path d="M97.2103 84.723L86.4253 80.6782C86.206 80.596 85.9619 80.7075 85.8799 80.9274C85.7979 81.1473 85.9091 81.3922 86.1284 81.4744L96.9134 85.5193C97.1327 85.6015 97.3769 85.4899 97.4588 85.27C97.5408 85.0502 97.4296 84.8053 97.2103 84.723Z" fill="#007BC7" />
	<path fill-rule="evenodd" clip-rule="evenodd" d="M83.9659 90.8729L86.0944 89.6486C75.7921 75.8005 75.2798 76.2129 83.9659 90.8729Z" fill="#B28B67" />
	<path fill-rule="evenodd" clip-rule="evenodd" d="M69.0137 93.0179L71.2184 93.2044C71.7304 76.1751 71.1332 76.2258 69.0137 93.0179Z" fill="#B28B67" />
	<path d="M67.743 79.5151C67.6615 72.9376 69.4304 62.8801 69.4304 62.8801L79.0905 63.6237C79.0905 63.6237 80.2462 67.0196 80.1568 69.2572C80.051 71.9008 79.1908 75.2998 79.3419 75.7635C79.4934 76.2271 85.2497 87.9595 85.2497 87.9595C84.4129 89.0372 83.8488 89.4844 82.6138 89.9314C82.6138 89.9314 74.5319 78.7143 74.1214 77.345C73.7105 75.976 74.1214 70.3249 74.1214 70.3249C74.1214 70.3249 73.2547 76.0456 73.2547 77.345C73.2547 78.6444 72.2387 91.2317 72.2387 91.2317C70.9797 91.4891 70.3076 91.4767 69.1429 91.2317C69.1429 91.2317 67.7988 84.0288 67.743 79.5151Z" fill="#007BC7" />
	<path fill-rule="evenodd" clip-rule="evenodd" d="M71.5204 92.1866C71.6222 92.6134 71.6731 92.9326 71.6731 93.1445C71.6731 93.4021 71.6456 93.7783 71.5911 94.2725C71.4007 94.2725 69.7071 94.0999 66.5599 93.6094C66.4266 92.9171 66.5037 92.5432 66.7912 92.4881C67.0787 92.4328 67.3174 92.383 67.5074 92.3384L69.7904 91.3316C69.8364 91.2998 69.8903 91.3319 69.9107 91.404C69.911 91.4052 69.9113 91.4065 69.9119 91.4077L70.0652 91.992C70.3314 92.1869 70.5476 92.2843 70.7139 92.2843C70.8493 92.2843 71.0359 92.1986 71.274 92.0273C71.3653 91.9614 71.4735 92.0245 71.5155 92.1677C71.517 92.1739 71.5189 92.1804 71.5204 92.1866Z" fill="#B51D54" />
	<path fill-rule="evenodd" clip-rule="evenodd" d="M85.5536 88.7822C85.9589 88.9746 86.2374 89.1441 86.3892 89.291C86.5736 89.4698 86.816 89.7584 87.1164 90.1565C86.9302 90.3501 85.2554 92.0894 82.0924 95.3742C81.4659 95.0297 81.2738 94.6922 81.5156 94.3619C81.7574 94.0315 81.9551 93.7544 82.1093 93.5301L83.249 89.9474C83.2709 89.8784 83.3468 89.846 83.4183 89.8753C83.4196 89.8756 83.4208 89.8763 83.422 89.8769L83.9902 90.1259C84.3902 89.9907 84.6715 89.8385 84.8344 89.6693C84.9667 89.532 85.0879 89.283 85.1983 88.922C85.2406 88.7835 85.3917 88.7173 85.5354 88.7742C85.5416 88.7767 85.5474 88.7795 85.5536 88.7822Z" fill="#B51D54" />
	<path fill-rule="evenodd" clip-rule="evenodd" d="M62.9459 51.3716L57.7639 48.8938C56.8562 47.9086 55.9796 47.1601 55.1342 46.6479C54.8816 46.5603 54.4498 46.5337 54.9106 47.2665C55.3711 47.9992 55.8257 48.7926 55.6416 49.0497C55.4574 49.3064 54.9241 49.0231 54.7135 49.4406C54.5728 49.719 55.4719 50.0521 57.4104 50.4397L61.2915 53.6797L62.9459 51.3716ZM83.9879 59.9704L81.0574 60.6036C84.0045 66.5841 85.5849 69.7539 85.799 70.1127C86.2801 70.92 85.8311 72.3997 85.6654 73.1789C86.7058 73.4427 86.2956 71.7375 87.612 72.0935C88.8136 72.4186 89.8327 73.2525 90.9532 72.1278C91.0911 71.9896 91.1919 71.5572 90.7222 71.3357C89.552 70.7833 87.8229 69.7493 87.5426 69.3478C87.1604 68.8003 85.9754 65.6744 83.9879 59.9704Z" fill="#B28B67" />
	<path d="M73.5921 47.6044C74.6955 47.6044 75.59 46.1586 75.59 44.3751C75.59 42.5916 74.6955 41.1458 73.5921 41.1458C72.4887 41.1458 71.5942 42.5916 71.5942 44.3751C71.5942 46.1586 72.4887 47.6044 73.5921 47.6044Z" fill="#B28B67" />
	<path d="M68.4627 51.0623C70.2945 50.1662 73.1642 48.7904 73.1642 48.7904L79.5213 54.8111L80.4269 66.9277L68.4627 65.9979C68.4627 65.9979 71.6454 53.9293 71.4863 53.7412C71.3268 53.5531 68.0013 56.3212 65.5884 55.8915C64.9265 55.7734 64.5774 55.6032 63.9509 55.3589C61.8086 54.5238 57.4951 51.0623 57.4951 51.0623C57.5031 49.8699 57.8566 49.4143 58.9889 48.7904C58.9889 48.7904 63.335 52.1278 65.5884 51.8158C66.8274 51.6441 67.3385 51.6122 68.4627 51.0623Z" fill="#B51D54" />
	<path d="M84.2518 68.8761C84.8502 69.285 87.3649 67.5263 87.3649 67.5263C87.3649 67.5263 85.6947 63.4991 84.7472 60.8724C83.7864 58.2093 82.4851 53.9844 82.4851 53.9844L80.042 53.2773L79.4141 54.9547L81.4454 62.0933C81.4454 62.0933 83.6535 68.4672 84.2518 68.8761Z" fill="#B51D54" />
	<path d="M78.5486 55.2797C78.0379 55.5176 77.7711 55.7226 77.2214 55.8457C75.8834 56.1458 73.9631 55.9559 73.8092 55.0186C73.655 54.0818 73.3204 49.2234 73.218 47.9265C73.1032 46.47 72.2439 45.9565 72.3405 44.865C72.4367 43.7734 72.1116 43.8167 71.6915 42.5878C71.363 41.6265 70.7116 42.0632 71.9398 40.5597C73.0061 39.2541 74.7808 39.4304 76.3282 40.0932C77.854 40.7471 76.6135 41.7681 77.7683 42.9627C78.313 43.5263 78.8055 43.6735 79.2423 44.3249C79.9144 45.3274 79.3151 46.5126 79.9356 47.3388L81.5253 49.4545C82.1459 50.2806 82.9771 50.6664 83.0857 51.744C83.1835 52.7127 83.0299 53.5145 82.2477 54.0913C81.6033 54.5664 80.2246 54.4102 80.2246 54.4102C80.2246 54.4102 79.217 54.9685 78.5486 55.2797Z" fill="#1A1A1B" />
</svg>