<svg width="18" height="16" viewBox="0 0 18 16" fill="none" xmlns="http://www.w3.org/2000/svg">
<path d="M7.73068 0.000309214C7.53602 0.00595315 7.3512 0.0867398 7.21536 0.225566L0.219454 7.18522C0.0789368 7.32507 0 7.51471 0 7.71244C0 7.91017 0.0789368 8.09981 0.219454 8.23966L7.21536 15.1993C7.28443 15.2709 7.36716 15.328 7.4587 15.3674C7.55024 15.4067 7.64876 15.4275 7.74848 15.4285C7.8482 15.4295 7.94712 15.4107 8.03945 15.3732C8.13178 15.3357 8.21565 15.2803 8.28617 15.2101C8.35669 15.14 8.41243 15.0566 8.45012 14.9647C8.48782 14.8729 8.50671 14.7744 8.5057 14.6752C8.50468 14.576 8.48378 14.478 8.44422 14.387C8.40465 14.2959 8.34722 14.2136 8.27529 14.1449L2.5589 8.45812H17.2398C17.3391 8.45952 17.4377 8.44126 17.5299 8.40441C17.622 8.36757 17.7059 8.31286 17.7767 8.24348C17.8474 8.1741 17.9036 8.09143 17.9419 8.00026C17.9803 7.9091 18 7.81126 18 7.71244C18 7.61362 17.9803 7.51578 17.9419 7.42462C17.9036 7.33346 17.8474 7.25078 17.7767 7.1814C17.7059 7.11202 17.622 7.05731 17.5299 7.02047C17.4377 6.98362 17.3391 6.96537 17.2398 6.96676H2.5589L8.27529 1.28C8.38342 1.17523 8.45725 1.04042 8.4871 0.893225C8.51695 0.746025 8.50143 0.59329 8.44258 0.455008C8.38373 0.316725 8.28429 0.199338 8.15727 0.118208C8.03025 0.0370785 7.88157 -0.00401385 7.73068 0.000309214Z" fill="white"/>
</svg>
