<svg xmlns="http://www.w3.org/2000/svg" version="1.1" width="95" height="19" viewBox="0 0 95 19" fill="#1A2C37">
  <path d="M 9.0206593,1.2283884 C 9.17147,0.76401019 9.8285453,0.76401019 9.9793561,1.2283985 l 1.8971309,5.8386652 c 0.06744,0.207678 0.260996,0.348287 0.479349,0.348287 h 6.139188 c 0.48822,0 0.69125,0.624826 0.296279,0.91183 l -4.966675,3.6084503 c -0.176719,0.128431 -0.250612,0.355958 -0.183171,0.563625 l 1.897131,5.838676 c 0.150912,0.464327 -0.380656,0.850528 -0.775627,0.563524 l -4.9666747,-3.60847 c -0.1767187,-0.128432 -0.4158385,-0.128432 -0.5925573,0 l -4.9666645,3.60847 C 3.8420331,19.18846 3.3105259,18.802259 3.4614173,18.337932 L 5.358518,12.499256 C 5.426,12.291589 5.352078,12.064062 5.175408,11.935631 L 0.20874343,8.3271807 C -0.18628805,8.0401767 0.01673188,7.4153507 0.505012,7.4153507 h 6.1391477 c 0.2183631,0 0.4118969,-0.140609 0.4793686,-0.348287 z" />
  <path d="m 28.020659,1.2283884 c 0.150811,-0.46437821 0.807886,-0.46437821 0.958697,1.01e-5 l 1.897131,5.8386652 c 0.06744,0.207678 0.260996,0.348287 0.479349,0.348287 h 6.139188 c 0.48822,0 0.69125,0.624826 0.296279,0.91183 l -4.966675,3.6084503 c -0.176719,0.128431 -0.250612,0.355958 -0.183171,0.563625 l 1.897131,5.838676 c 0.150912,0.464327 -0.380656,0.850528 -0.775627,0.563524 l -4.966675,-3.60847 c -0.176718,-0.128432 -0.415838,-0.128432 -0.592557,0 l -4.966664,3.60847 c -0.395032,0.287004 -0.926539,-0.0992 -0.775648,-0.563524 l 1.897101,-5.838676 c 0.06748,-0.207667 -0.0064,-0.435194 -0.18311,-0.563625 L 19.208743,8.3271807 c -0.395031,-0.287004 -0.192011,-0.91183 0.296269,-0.91183 h 6.139148 c 0.218363,0 0.411897,-0.140609 0.479368,-0.348287 z" />
  <path d="m 47.020659,1.2283884 c 0.150811,-0.46437821 0.807886,-0.46437821 0.958697,1.01e-5 l 1.897131,5.8386652 c 0.06744,0.207678 0.260996,0.348287 0.479349,0.348287 h 6.139188 c 0.48822,0 0.69125,0.624826 0.296279,0.91183 l -4.966675,3.6084503 c -0.176719,0.128431 -0.250612,0.355958 -0.183171,0.563625 l 1.897131,5.838676 c 0.150912,0.464327 -0.380656,0.850528 -0.775627,0.563524 l -4.966675,-3.60847 c -0.176718,-0.128432 -0.415838,-0.128432 -0.592557,0 l -4.966664,3.60847 c -0.395032,0.287004 -0.926539,-0.0992 -0.775648,-0.563524 l 1.897101,-5.838676 c 0.06748,-0.207667 -0.0064,-0.435194 -0.18311,-0.563625 L 38.208743,8.3271807 c -0.395031,-0.287004 -0.192011,-0.91183 0.296269,-0.91183 h 6.139148 c 0.218363,0 0.411897,-0.140609 0.479368,-0.348287 z" />
  <path d="m 66.020659,1.2283884 c 0.150811,-0.46437821 0.807886,-0.46437821 0.958697,1.01e-5 l 1.897131,5.8386652 c 0.06744,0.207678 0.260996,0.348287 0.479349,0.348287 h 6.139188 c 0.48822,0 0.69125,0.624826 0.296279,0.91183 l -4.966675,3.6084503 c -0.176719,0.128431 -0.250612,0.355958 -0.183171,0.563625 l 1.897131,5.838676 c 0.150912,0.464327 -0.380656,0.850528 -0.775627,0.563524 l -4.966675,-3.60847 c -0.176718,-0.128432 -0.415838,-0.128432 -0.592557,0 l -4.966664,3.60847 c -0.395032,0.287004 -0.926539,-0.0992 -0.775648,-0.563524 l 1.897101,-5.838676 c 0.06748,-0.207667 -0.0064,-0.435194 -0.18311,-0.563625 L 57.208743,8.3271807 c -0.395031,-0.287004 -0.192011,-0.91183 0.296269,-0.91183 h 6.139148 c 0.218363,0 0.411897,-0.140609 0.479368,-0.348287 z" />
  <path d="m 85.020659,1.2283884 c 0.150811,-0.46437821 0.807886,-0.46437821 0.958697,1.01e-5 l 1.897131,5.8386652 c 0.06744,0.207678 0.260996,0.348287 0.479349,0.348287 h 6.139188 c 0.48822,0 0.69125,0.624826 0.296279,0.91183 l -4.966675,3.6084503 c -0.176719,0.128431 -0.250612,0.355958 -0.183171,0.563625 l 1.897131,5.838676 c 0.150912,0.464327 -0.380656,0.850528 -0.775627,0.563524 l -4.966675,-3.60847 c -0.176718,-0.128432 -0.415838,-0.128432 -0.592557,0 l -4.966664,3.60847 c -0.395032,0.287004 -0.926539,-0.0992 -0.775648,-0.563524 l 1.897101,-5.838676 c 0.06748,-0.207667 -0.0064,-0.435194 -0.18311,-0.563625 L 76.208743,8.3271807 c -0.395031,-0.287004 -0.192011,-0.91183 0.296269,-0.91183 h 6.139148 c 0.218363,0 0.411897,-0.140609 0.479368,-0.348287 z" />
</svg>