<svg width="30" height="30" viewBox="0 0 30 30" fill="none" xmlns="http://www.w3.org/2000/svg">
<path d="M24.2746 12.44C24.2746 19.1031 18.8731 24.5045 12.21 24.5045C5.54698 24.5045 0.145508 19.1031 0.145508 12.44C0.145508 5.77696 5.54698 0.375488 12.21 0.375488C18.8731 0.375488 24.2746 5.77696 24.2746 12.44Z" fill="white"/>
<path d="M18.7641 21.8394L21.7893 18.8913L28.7551 26.0396C29.5691 26.875 29.898 28.2593 28.904 29.228C28.0686 30.042 26.5439 29.823 25.7298 28.9876L18.7641 21.8394Z" fill="white"/>
<path d="M17.6049 12.401C17.6049 11.7641 17.0886 11.2478 16.4518 11.2478H13.3767V8.17276C13.3767 7.53589 12.8604 7.01961 12.2235 7.01961C11.5867 7.01961 11.0704 7.53589 11.0704 8.17276V11.2478H7.99533C7.35846 11.2478 6.84218 11.7641 6.84218 12.401C6.84218 13.0378 7.35846 13.5541 7.99533 13.5541H11.0704V16.6292C11.0704 17.266 11.5867 17.7823 12.2235 17.7823C12.8604 17.7823 13.3767 17.266 13.3767 16.6292V13.5541H16.4518C17.0886 13.5541 17.6049 13.0378 17.6049 12.401ZM12.2235 1.25386C18.3799 1.25386 23.3707 6.24459 23.3707 12.401C23.3707 15.0638 22.437 17.5085 20.8792 19.4257L28.4143 26.9609C28.8646 27.4112 28.8646 28.1414 28.4143 28.5917C28.0049 29.0011 27.3642 29.0383 26.9128 28.7033L26.7835 28.5917L19.2482 21.0566C17.3311 22.6144 14.8863 23.5481 12.2235 23.5481C6.06716 23.5481 1.07644 18.5573 1.07644 12.401C1.07644 6.24459 6.06716 1.25386 12.2235 1.25386ZM12.2235 3.56016C7.3409 3.56016 3.38273 7.51833 3.38273 12.401C3.38273 17.2836 7.3409 21.2418 12.2235 21.2418C17.1062 21.2418 21.0644 17.2836 21.0644 12.401C21.0644 7.51833 17.1062 3.56016 12.2235 3.56016Z" fill="#1A2C37"/>
</svg>
