<svg xmlns="http://www.w3.org/2000/svg" width="17" height="17" viewBox="0 0 17 17" fill="white">
	<path d="M7.07906 0C3.17779 0 0 3.17779 0 7.07906C0 10.9803 3.17779 14.1581 7.07906 14.1581C8.77556 14.1581 10.3336 13.5557 11.5546 12.5556L15.7813 16.7823C15.8466 16.8503 15.9247 16.9045 16.0111 16.9419C16.0976 16.9793 16.1906 16.999 16.2848 17C16.379 17.0009 16.4724 16.9831 16.5596 16.9475C16.6468 16.9119 16.726 16.8592 16.7926 16.7926C16.8592 16.726 16.9119 16.6468 16.9475 16.5596C16.9831 16.4724 17.0009 16.379 17 16.2848C16.999 16.1906 16.9793 16.0976 16.9419 16.0111C16.9045 15.9247 16.8503 15.8466 16.7823 15.7813L12.5556 11.5546C13.5557 10.3336 14.1581 8.77556 14.1581 7.07906C14.1581 3.17779 10.9803 0 7.07906 0ZM7.07906 1.41581C10.2152 1.41581 12.7423 3.94295 12.7423 7.07906C12.7423 10.2152 10.2152 12.7423 7.07906 12.7423C3.94295 12.7423 1.41581 10.2152 1.41581 7.07906C1.41581 3.94295 3.94295 1.41581 7.07906 1.41581ZM7.068 3.52985C6.88049 3.53278 6.70181 3.60999 6.57116 3.74452C6.44052 3.87905 6.36858 4.05992 6.37115 4.24744V6.37115H4.24744C4.15363 6.36983 4.06049 6.38716 3.97344 6.42214C3.88639 6.45712 3.80717 6.50905 3.74036 6.57492C3.67356 6.64078 3.62051 6.71927 3.5843 6.80582C3.54809 6.89236 3.52945 6.98524 3.52945 7.07906C3.52945 7.17287 3.54809 7.26575 3.5843 7.3523C3.62051 7.43885 3.67356 7.51733 3.74036 7.5832C3.80717 7.64907 3.88639 7.701 3.97344 7.73598C4.06049 7.77096 4.15363 7.78829 4.24744 7.78696H6.37115V9.91068C6.36983 10.0045 6.38716 10.0976 6.42214 10.1847C6.45712 10.2717 6.50905 10.351 6.57492 10.4178C6.64078 10.4846 6.71927 10.5376 6.80582 10.5738C6.89236 10.61 6.98524 10.6287 7.07906 10.6287C7.17287 10.6287 7.26575 10.61 7.3523 10.5738C7.43885 10.5376 7.51733 10.4846 7.5832 10.4178C7.64907 10.351 7.701 10.2717 7.73598 10.1847C7.77096 10.0976 7.78829 10.0045 7.78696 9.91068V7.78696H9.91068C10.0045 7.78829 10.0976 7.77096 10.1847 7.73598C10.2717 7.701 10.351 7.64907 10.4178 7.5832C10.4846 7.51733 10.5376 7.43885 10.5738 7.3523C10.61 7.26575 10.6287 7.17287 10.6287 7.07906C10.6287 6.98524 10.61 6.89236 10.5738 6.80582C10.5376 6.71927 10.4846 6.64078 10.4178 6.57492C10.351 6.50905 10.2717 6.45712 10.1847 6.42214C10.0976 6.38716 10.0045 6.36983 9.91068 6.37115H7.78696V4.24744C7.78826 4.15272 7.77054 4.05872 7.73485 3.97098C7.69916 3.88324 7.64623 3.80356 7.57919 3.73664C7.51215 3.66973 7.43236 3.61695 7.34455 3.58143C7.25675 3.54591 7.1627 3.52837 7.068 3.52985Z" />
</svg>