<svg xmlns="http://www.w3.org/2000/svg" width="260" height="175" viewBox="0 0 260 175" fill="none">
	<defs>
		<linearGradient id="background" x1="17.5" y1="164.5" x2="292.5" y2="-27" gradientUnits="userSpaceOnUse">
			<stop offset="0" stop-color="#E0E0E0" />
			<stop offset="1" stop-color="#E0E0E0" stop-opacity="0" />
		</linearGradient>
	</defs>
	<rect width="260" height="175" fill="url(#background)" />
	<path d="M133.5 51.3008C132.934 51.3012 132.376 51.4417 131.877 51.7098L83.8441 75.723V75.7297C83.2888 76.0197 82.8235 76.456 82.4985 76.9915C82.1734 77.5269 82.001 78.1411 82 78.7674C82.001 79.3938 82.1734 80.008 82.4985 80.5434C82.8235 81.0789 83.2888 81.5152 83.8441 81.8051V81.8118L131.857 105.812C132.361 106.088 132.926 106.233 133.5 106.234C134.066 106.234 134.624 106.093 135.123 105.825L183.122 81.8253C183.134 81.8208 183.145 81.8164 183.156 81.8118V81.8051C183.711 81.5152 184.176 81.0789 184.502 80.5434C184.827 80.008 184.999 79.3938 185 78.7674C184.999 78.1411 184.827 77.5269 184.502 76.9915C184.176 76.456 183.711 76.0197 183.156 75.7297V75.723L135.143 51.7232C134.639 51.4472 134.074 51.302 133.5 51.3008ZM181.567 90.2812L174.7 93.7145V124.353C172.655 125.542 171.267 127.73 171.267 130.267C171.267 134.061 178.133 144.001 178.133 144.001C178.133 144.001 185 134.061 185 130.267C185 127.73 183.612 125.542 181.567 124.353V90.2812ZM102.6 98.8578V113.101C102.6 122.58 116.433 130.267 133.5 130.267C150.567 130.267 164.4 122.58 164.4 113.101V98.8578L138.187 111.968C137.899 112.112 137.611 112.23 137.316 112.33C136.073 112.841 134.794 113.101 133.5 113.101C132.209 113.101 130.934 112.841 129.698 112.33C129.399 112.23 129.105 112.108 128.813 111.961L102.6 98.8578Z" fill="white" />
	<path d="M129.5 46.3008C128.934 46.3012 128.376 46.4417 127.877 46.7098L79.8441 70.723V70.7297C79.2888 71.0197 78.8235 71.456 78.4985 71.9915C78.1734 72.5269 78.001 73.1411 78 73.7674C78.001 74.3938 78.1734 75.008 78.4985 75.5434C78.8235 76.0789 79.2888 76.5152 79.8441 76.8051V76.8118L127.857 100.812C128.361 101.088 128.926 101.233 129.5 101.234C130.066 101.234 130.624 101.093 131.123 100.825L179.122 76.8253C179.134 76.8208 179.145 76.8164 179.156 76.8118V76.8051C179.711 76.5152 180.176 76.0789 180.502 75.5434C180.827 75.008 180.999 74.3938 181 73.7674C180.999 73.1411 180.827 72.5269 180.502 71.9915C180.176 71.456 179.711 71.0197 179.156 70.7297V70.723L131.143 46.7232C130.639 46.4472 130.074 46.302 129.5 46.3008ZM177.567 85.2812L170.7 88.7145V119.353C168.655 120.542 167.267 122.73 167.267 125.267C167.267 129.061 174.133 139.001 174.133 139.001C174.133 139.001 181 129.061 181 125.267C181 122.73 179.612 120.542 177.567 119.353V85.2812ZM98.6 93.8578V108.101C98.6 117.58 112.433 125.267 129.5 125.267C146.567 125.267 160.4 117.58 160.4 108.101V93.8578L134.187 106.968C133.899 107.112 133.611 107.23 133.316 107.33C132.073 107.841 130.794 108.101 129.5 108.101C128.209 108.101 126.934 107.841 125.698 107.33C125.399 107.23 125.105 107.108 124.813 106.961L98.6 93.8578Z" fill="#A3AAB1" />
</svg>