<svg xmlns="http://www.w3.org/2000/svg" width="19" height="18" viewBox="0 0 19 18" fill="#FDB806">
	<path d="M8.12553 0.836963C8.67629 -0.278989 10.2676 -0.278986 10.8184 0.836963L12.9049 5.06473L17.5705 5.7427C18.8021 5.92163 19.2939 7.43507 18.4025 8.30373L15.0266 11.5946L15.8235 16.2414C16.0339 17.4678 14.7465 18.4033 13.645 17.8243L9.47195 15.6303L5.29889 17.8243C4.19736 18.4033 2.90997 17.4678 3.12034 16.2414L3.91732 11.5946L0.54124 8.30373C-0.349896 7.43507 0.14185 5.92163 1.37339 5.7427L6.039 5.06473L8.12553 0.836963ZM9.47195 2.34963L7.63468 6.07233C7.41598 6.51546 6.99322 6.82263 6.50417 6.89368L2.39594 7.49065L5.36869 10.3884C5.72255 10.7333 5.88403 11.2303 5.80049 11.7173L5.09873 15.809L8.77324 13.8772C9.21066 13.6472 9.73322 13.6472 10.1706 13.8772L13.8452 15.809L13.1434 11.7174C13.0598 11.2303 13.2213 10.7333 13.5752 10.3884L16.548 7.49065L12.4397 6.89368C11.9507 6.82263 11.5279 6.51546 11.3092 6.07233L9.47195 2.34963Z" />
</svg>