<svg xmlns="http://www.w3.org/2000/svg" width="17" height="18" viewBox="0 0 17 18" fill="#6C7277">
	<path d="M0.659246 3.86035e-05C0.481798 0.00282996 0.312707 0.076427 0.189111 0.204664C0.0655157 0.332902 -0.00247655 0.505293 6.89844e-05 0.683972L6.89844e-05 11.9219L6.89844e-05 17.3161C-0.00118595 17.4055 0.0152076 17.4942 0.048297 17.5771C0.0813864 17.66 0.130512 17.7355 0.192818 17.7991C0.255124 17.8627 0.329369 17.9133 0.411237 17.9478C0.493106 17.9822 0.580965 18 0.669709 18C0.758453 18 0.846312 17.9822 0.92818 17.9478C1.01005 17.9133 1.08429 17.8627 1.1466 17.7991C1.20891 17.7355 1.25803 17.66 1.29112 17.5771C1.32421 17.4942 1.3406 17.4055 1.33935 17.3161L1.33935 12.5962H15.4018C15.5794 12.5962 15.7497 12.5251 15.8753 12.3987C16.0009 12.2722 16.0714 12.1007 16.0714 11.9219V0.683972C16.0714 0.505149 16.0009 0.333654 15.8753 0.207207C15.7497 0.0807595 15.5794 0.00971409 15.4018 0.00969621L0.779572 0.00969621C0.739834 0.00283654 0.699561 -0.000395781 0.659246 3.86035e-05ZM1.33935 1.35825L4.46434 1.35825V4.50487L8.03575 4.50487V1.35825L11.6072 1.35825V4.50487H14.7321V8.10101H11.6072V11.2476H8.03575V8.10101H4.46434V11.2476H1.33935L1.33935 8.10101H4.46434L4.46434 4.50487H1.33935L1.33935 1.35825ZM8.03575 8.10101H11.6072V4.50487H8.03575V8.10101Z" />
</svg>