<svg xmlns="http://www.w3.org/2000/svg" width="361" height="63" viewBox="0 0 361 63" fill="none">
	<defs>
		<linearGradient id="paint0_linear_9751_99316" x1="7.00309" y1="9.95922" x2="74.3197" y2="57.927" gradientUnits="userSpaceOnUse">
			<stop stop-color="#8795A1" />
			<stop offset="1" stop-color="#6D7882" />
		</linearGradient>
		<radialGradient id="paint1_radial_9751_99316" cx="0" cy="0" r="1" gradientUnits="userSpaceOnUse" gradientTransform="translate(64.4124 22.8013) scale(5.36772)">
			<stop />
			<stop offset="1" stop-opacity="0" />
		</radialGradient>
		<radialGradient id="paint2_radial_9751_99316" cx="0" cy="0" r="1" gradientUnits="userSpaceOnUse" gradientTransform="translate(64.4124 37.1177) scale(5.36772)">
			<stop />
			<stop offset="1" stop-opacity="0" />
		</radialGradient>
		<radialGradient id="paint3_radial_9751_99316" cx="0" cy="0" r="1" gradientUnits="userSpaceOnUse" gradientTransform="translate(57.2555 29.9576) scale(5.36772)">
			<stop />
			<stop offset="1" stop-opacity="0" />
		</radialGradient>
		<radialGradient id="paint4_radial_9751_99316" cx="0" cy="0" r="1" gradientUnits="userSpaceOnUse" gradientTransform="translate(71.5699 29.9576) scale(5.36772)">
			<stop />
			<stop offset="1" stop-opacity="0" />
		</radialGradient>
		<radialGradient id="paint5_radial_9751_99316" cx="0" cy="0" r="1" gradientUnits="userSpaceOnUse" gradientTransform="translate(69.1808 27.4259) scale(7.07824)">
			<stop stop-color="#46C3F0" />
			<stop offset="1" stop-color="#15A2EB" />
		</radialGradient>
		<radialGradient id="paint6_radial_9751_99316" cx="0" cy="0" r="1" gradientUnits="userSpaceOnUse" gradientTransform="translate(54.7077 27.4599) scale(7.12834)">
			<stop stop-color="#FEE100" />
			<stop offset="1" stop-color="#F7A511" />
		</radialGradient>
		<radialGradient id="paint7_radial_9751_99316" cx="0" cy="0" r="1" gradientUnits="userSpaceOnUse" gradientTransform="translate(61.8665 20.2998) scale(7.12834)">
			<stop stop-color="#FF80A9" />
			<stop offset="1" stop-color="#FF3B78" />
		</radialGradient>
		<radialGradient id="paint8_radial_9751_99316" cx="0" cy="0" r="1" gradientUnits="userSpaceOnUse" gradientTransform="translate(62.0865 34.4408) scale(7.24285)">
			<stop stop-color="#1AD674" />
			<stop offset="0.485" stop-color="#13C266" />
			<stop offset="1" stop-color="#0AA854" />
		</radialGradient>
		<linearGradient id="paint9_linear_9751_99316" x1="155.176" y1="1.22656" x2="155.176" y2="12.9998" gradientUnits="userSpaceOnUse">
			<stop stop-color="#F0F0F0" />
			<stop offset="1" stop-color="#BBC1C4" />
		</linearGradient>
		<linearGradient id="paint10_linear_9751_99316" x1="199.433" y1="1.22656" x2="199.433" y2="11.6578" gradientUnits="userSpaceOnUse">
			<stop stop-color="#F0F0F0" />
			<stop offset="1" stop-color="#BBC1C4" />
		</linearGradient>
		<linearGradient id="paint11_linear_9751_99316" x1="177.38" y1="4.80469" x2="177.38" y2="62.0604" gradientUnits="userSpaceOnUse">
			<stop stop-color="#F0F0F0" />
			<stop offset="1" stop-color="#BBC1C4" />
		</linearGradient>
		<linearGradient id="paint12_linear_9751_99316" x1="141.542" y1="13" x2="141.542" y2="13.6441" gradientUnits="userSpaceOnUse">
			<stop stop-color="#F0F0F0" />
			<stop offset="1" stop-color="#BBC1C4" />
		</linearGradient>
		<linearGradient id="paint13_linear_9751_99316" x1="212.736" y1="11.6562" x2="212.736" y2="12.5688" gradientUnits="userSpaceOnUse">
			<stop stop-color="#F0F0F0" />
			<stop offset="1" stop-color="#BBC1C4" />
		</linearGradient>
		<radialGradient id="paint14_radial_9751_99316" cx="0" cy="0" r="1" gradientUnits="userSpaceOnUse" gradientTransform="translate(166.645 31.6452) scale(7.15697)">
			<stop stop-color="#8795A1" />
			<stop offset="1" stop-color="#6D7882" />
		</radialGradient>
		<radialGradient id="paint15_radial_9751_99316" cx="0" cy="0" r="1" gradientUnits="userSpaceOnUse" gradientTransform="translate(201.524 12.8557) scale(2.6785)">
			<stop stop-color="#FEE100" />
			<stop offset="1" stop-color="#F7A511" />
		</radialGradient>
		<radialGradient id="paint16_radial_9751_99316" cx="0" cy="0" r="1" gradientUnits="userSpaceOnUse" gradientTransform="translate(201.546 23.594) scale(2.6785)">
			<stop stop-color="#1AD674" />
			<stop offset="0.485" stop-color="#13C266" />
			<stop offset="1" stop-color="#0AA854" />
		</radialGradient>
		<radialGradient id="paint17_radial_9751_99316" cx="0" cy="0" r="1" gradientUnits="userSpaceOnUse" gradientTransform="translate(206.913 18.2229) scale(2.6785)">
			<stop stop-color="#FF80A9" />
			<stop offset="1" stop-color="#FF3B78" />
		</radialGradient>
		<radialGradient id="paint18_radial_9751_99316" cx="0" cy="0" r="1" gradientUnits="userSpaceOnUse" gradientTransform="translate(196.157 18.2229) scale(2.6785)">
			<stop stop-color="#46C3F0" />
			<stop offset="1" stop-color="#15A2EB" />
		</radialGradient>
		<radialGradient id="paint19_radial_9751_99316" cx="0" cy="0" r="1" gradientUnits="userSpaceOnUse" gradientTransform="translate(154.12 17.3287) scale(5.36772)">
			<stop stop-color="#8795A1" />
			<stop offset="1" stop-color="#6D7882" />
		</radialGradient>
		<radialGradient id="paint20_radial_9751_99316" cx="0" cy="0" r="1" gradientUnits="userSpaceOnUse" gradientTransform="translate(188.116 31.6451) scale(5.36772)">
			<stop stop-color="#8795A1" />
			<stop offset="1" stop-color="#6D7882" />
		</radialGradient>
		<radialGradient id="paint21_radial_9751_99316" cx="0" cy="0" r="1" gradientUnits="userSpaceOnUse" gradientTransform="translate(177.381 13.7504) scale(3.57848)">
			<stop stop-color="#8795A1" />
			<stop offset="1" stop-color="#6D7882" />
		</radialGradient>
		<linearGradient id="paint22_linear_9751_99316" x1="321.637" y1="3.38489" x2="321.637" y2="38.9818" gradientUnits="userSpaceOnUse">
			<stop stop-color="#636363" />
			<stop offset="1" stop-color="#444444" />
		</linearGradient>
		<linearGradient id="paint23_linear_9751_99316" x1="347.354" y1="31.4709" x2="355.464" y2="57.8318" gradientUnits="userSpaceOnUse">
			<stop stop-color="#A1AAB3" />
			<stop offset="1" stop-color="#8F979E" />
		</linearGradient>
		<linearGradient id="paint24_linear_9751_99316" x1="295.872" y1="31.3528" x2="290.916" y2="55.0102" gradientUnits="userSpaceOnUse">
			<stop stop-color="#A1AAB3" />
			<stop offset="1" stop-color="#8F979E" />
		</linearGradient>
		<linearGradient id="paint25_linear_9751_99316" x1="300.55" y1="10.7586" x2="300.55" y2="32.2814" gradientUnits="userSpaceOnUse">
			<stop stop-color="#A1AAB3" />
			<stop offset="1" stop-color="#8F979E" />
		</linearGradient>
		<linearGradient id="paint26_linear_9751_99316" x1="329.179" y1="10.7611" x2="329.179" y2="32.2839" gradientUnits="userSpaceOnUse">
			<stop stop-color="#A1AAB3" />
			<stop offset="1" stop-color="#8F979E" />
		</linearGradient>
		<linearGradient id="paint27_linear_9751_99316" x1="309.496" y1="10.7596" x2="309.496" y2="32.2824" gradientUnits="userSpaceOnUse">
			<stop stop-color="#A1AAB3" />
			<stop offset="1" stop-color="#8F979E" />
		</linearGradient>
		<linearGradient id="paint28_linear_9751_99316" x1="339.019" y1="10.7611" x2="339.019" y2="32.2838" gradientUnits="userSpaceOnUse">
			<stop stop-color="#A1AAB3" />
			<stop offset="1" stop-color="#8F979E" />
		</linearGradient>
		<linearGradient id="paint29_linear_9751_99316" x1="344.387" y1="10.7605" x2="344.387" y2="32.2833" gradientUnits="userSpaceOnUse">
			<stop stop-color="#A1AAB3" />
			<stop offset="1" stop-color="#8F979E" />
		</linearGradient>
		<linearGradient id="paint30_linear_9751_99316" x1="339.019" y1="10.76" x2="339.019" y2="32.2828" gradientUnits="userSpaceOnUse">
			<stop stop-color="#A1AAB3" />
			<stop offset="1" stop-color="#8F979E" />
		</linearGradient>
		<linearGradient id="paint31_linear_9751_99316" x1="333.651" y1="10.7605" x2="333.651" y2="32.2833" gradientUnits="userSpaceOnUse">
			<stop stop-color="#A1AAB3" />
			<stop offset="1" stop-color="#8F979E" />
		</linearGradient>
	</defs>
	<g style="mix-blend-mode:luminosity" opacity="0.3">
		<path d="M57.2559 8.48864L69.7806 12.0671V6.6994C69.7806 5.71174 68.979 4.91016 67.9914 4.91016L59.0451 4.91016C58.0575 4.91016 57.2559 5.71174 57.2559 6.6994V8.48864Z" fill="#0076D7" />
		<path d="M25.0491 8.48864L12.5244 12.0671V6.6994C12.5244 5.71174 13.326 4.91016 14.3137 4.91016L23.2599 4.91016C24.2476 4.91016 25.0491 5.71174 25.0491 6.6994V8.48864Z" fill="#0076D7" />
		<path d="M79.4047 16.6707C78.995 13.8061 76.9141 11.4765 74.1086 10.7644C67.8516 9.17553 55.7635 6.69922 41.1525 6.69922C26.5398 6.69922 14.4535 9.17553 8.19651 10.7644C5.39098 11.4765 3.31189 13.8061 2.90036 16.6707C1.8626 23.9171 0 37.8195 0 44.2733C0 53.1676 7.20885 60.3765 16.1032 60.3765C23.7647 60.3765 30.1648 55.0213 31.793 47.8518H50.5103C52.1403 55.0213 58.5386 60.3765 66.2001 60.3765C75.0945 60.3765 82.3033 53.1676 82.3033 44.2733C82.3051 37.8195 80.4425 23.9153 79.4047 16.6707Z" fill="url(#paint0_linear_9751_99316)" />
		<path d="M64.4124 28.169C67.3769 28.169 69.7801 25.7658 69.7801 22.8013C69.7801 19.8368 67.3769 17.4336 64.4124 17.4336C61.4479 17.4336 59.0447 19.8368 59.0447 22.8013C59.0447 25.7658 61.4479 28.169 64.4124 28.169Z" fill="url(#paint1_radial_9751_99316)" />
		<path d="M64.4124 42.4854C67.3769 42.4854 69.7801 40.0822 69.7801 37.1177C69.7801 34.1532 67.3769 31.75 64.4124 31.75C61.4479 31.75 59.0447 34.1532 59.0447 37.1177C59.0447 40.0822 61.4479 42.4854 64.4124 42.4854Z" fill="url(#paint2_radial_9751_99316)" />
		<path d="M57.2555 35.3253C60.22 35.3253 62.6232 32.9221 62.6232 29.9576C62.6232 26.9931 60.22 24.5898 57.2555 24.5898C54.291 24.5898 51.8878 26.9931 51.8878 29.9576C51.8878 32.9221 54.291 35.3253 57.2555 35.3253Z" fill="url(#paint3_radial_9751_99316)" />
		<path d="M71.5699 35.3253C74.5344 35.3253 76.9376 32.9221 76.9376 29.9576C76.9376 26.9931 74.5344 24.5898 71.5699 24.5898C68.6054 24.5898 66.2022 26.9931 66.2022 29.9576C66.2022 32.9221 68.6054 35.3253 71.5699 35.3253Z" fill="url(#paint4_radial_9751_99316)" />
		<path d="M71.5694 33.5398C73.5458 33.5398 75.1479 31.9376 75.1479 29.9613C75.1479 27.985 73.5458 26.3828 71.5694 26.3828C69.5931 26.3828 67.991 27.985 67.991 29.9613C67.991 31.9376 69.5931 33.5398 71.5694 33.5398Z" fill="url(#paint5_radial_9751_99316)" />
		<path d="M57.2556 33.5398C59.232 33.5398 60.8341 31.9376 60.8341 29.9613C60.8341 27.985 59.232 26.3828 57.2556 26.3828C55.2793 26.3828 53.6771 27.985 53.6771 29.9613C53.6771 31.9376 55.2793 33.5398 57.2556 33.5398Z" fill="url(#paint6_radial_9751_99316)" />
		<path d="M64.4125 26.3796C66.3889 26.3796 67.991 24.7775 67.991 22.8011C67.991 20.8248 66.3889 19.2227 64.4125 19.2227C62.4362 19.2227 60.8341 20.8248 60.8341 22.8011C60.8341 24.7775 62.4362 26.3796 64.4125 26.3796Z" fill="url(#paint7_radial_9751_99316)" />
		<path d="M64.4125 40.696C66.3889 40.696 67.991 39.0939 67.991 37.1175C67.991 35.1412 66.3889 33.5391 64.4125 33.5391C62.4362 33.5391 60.8341 35.1412 60.8341 37.1175C60.8341 39.0939 62.4362 40.696 64.4125 40.696Z" fill="url(#paint8_radial_9751_99316)" />
		<path opacity="0.05" d="M28.6279 26.3796L25.0495 26.3796V22.8011C25.0495 20.824 23.4481 19.2227 21.471 19.2227H19.6817C17.7046 19.2227 16.1033 20.824 16.1033 22.8011V26.3796H12.5248C10.5477 26.3796 8.94629 27.981 8.94629 29.9581V31.7473C8.94629 33.7245 10.5477 35.3258 12.5248 35.3258H16.1033L16.1033 38.9043C16.1033 40.8814 17.7046 42.4828 19.6817 42.4828H21.471C23.4481 42.4828 25.0495 40.8814 25.0495 38.9043V35.3258H28.6279C30.6051 35.3258 32.2064 33.7245 32.2064 31.7473V29.9581C32.2064 27.981 30.6051 26.3796 28.6279 26.3796Z" fill="black" />
		<path opacity="0.07" d="M28.628 27.2742L24.1549 27.2742V22.801C24.1549 21.3196 22.9525 20.1172 21.471 20.1172H19.6818C18.2003 20.1172 16.9979 21.3196 16.9979 22.801V27.2742H12.5248C11.0433 27.2742 9.84097 28.4765 9.84097 29.958V31.7473C9.84097 33.2288 11.0433 34.4311 12.5248 34.4311H16.9979L16.9979 38.9042C16.9979 40.3857 18.2003 41.5881 19.6818 41.5881H21.471C22.9525 41.5881 24.1549 40.3857 24.1549 38.9042V34.4311H28.628C30.1095 34.4311 31.3119 33.2288 31.3119 31.7473V29.958C31.3119 28.4765 30.1095 27.2742 28.628 27.2742Z" fill="black" />
		<path d="M19.6818 21.0117H21.4711C22.4587 21.0117 23.2603 21.8133 23.2603 22.801V38.9041C23.2603 39.8918 22.4587 40.6934 21.4711 40.6934H19.6818C18.6942 40.6934 17.8926 39.8918 17.8926 38.9041L17.8926 22.801C17.8926 21.8133 18.6942 21.0117 19.6818 21.0117Z" fill="white" />
		<path d="M30.4173 29.9611V31.7504C30.4173 32.738 29.6157 33.5396 28.6281 33.5396H12.5249C11.5373 33.5396 10.7357 32.738 10.7357 31.7504V29.9611C10.7357 28.9735 11.5373 28.1719 12.5249 28.1719L28.6281 28.1719C29.6157 28.1719 30.4173 28.9735 30.4173 29.9611Z" fill="white" />
	</g>
	<g style="mix-blend-mode:luminosity" opacity="0.7">
		<path d="M153.87 1.22656C161.707 1.22656 164.963 4.80505 168.685 4.80505C164.981 4.80505 144.512 6.29012 141.667 12.9998C144.262 6.23644 148.126 1.22656 153.87 1.22656Z" fill="url(#paint9_linear_9751_99316)" />
		<path d="M212.539 11.6578C209.426 5.69967 189.995 4.80504 186.327 4.80504C190.048 4.80504 193.054 1.22656 200.891 1.22656C206.241 1.22656 209.963 5.59231 212.539 11.6578Z" fill="url(#paint10_linear_9751_99316)" />
		<path d="M218.533 49.5357C218.533 56.0503 215.466 60.2712 209.587 60.2712C203.707 60.2712 195.954 42.3788 188.116 42.3788C180.277 42.3788 174.399 42.3788 166.561 42.3788C158.722 42.3788 151.053 62.0604 145.174 62.0604C139.294 62.0604 136.228 56.0503 136.228 49.5357C136.228 47.7465 136.228 27.1702 141.595 13.1354C144.208 6.30407 164.967 4.80469 168.69 4.80469C176.724 4.80469 178.291 4.80469 186.326 4.80469C190.05 4.80469 210.091 5.72973 212.693 11.9617C218.529 25.941 218.533 49.5357 218.533 49.5357Z" fill="url(#paint11_linear_9751_99316)" />
		<path d="M141.596 13.1431C141.613 13.0895 141.631 13.0537 141.667 13C141.578 13.2147 141.488 13.4294 141.417 13.6441C141.47 13.4652 141.524 13.3042 141.596 13.1431Z" fill="url(#paint12_linear_9751_99316)" />
		<path d="M212.7 11.9604C212.789 12.1572 212.861 12.3719 212.932 12.5688C212.807 12.2467 212.682 11.9604 212.539 11.6562C212.61 11.7636 212.664 11.8531 212.7 11.9604Z" fill="url(#paint13_linear_9751_99316)" />
		<path opacity="0.35" d="M166.645 40.5916C171.586 40.5916 175.591 36.5863 175.591 31.6454C175.591 26.7046 171.586 22.6992 166.645 22.6992C161.704 22.6992 157.698 26.7046 157.698 31.6454C157.698 36.5863 161.704 40.5916 166.645 40.5916Z" fill="white" />
		<path d="M173.802 31.6452C173.802 32.2715 173.73 32.8619 173.551 33.4345C173.515 33.6313 173.444 33.8281 173.372 34.0249C172.675 36.0647 171.064 37.675 169.024 38.3728C168.828 38.4444 168.631 38.5159 168.434 38.5517C167.861 38.7306 167.271 38.8022 166.645 38.8022C166.019 38.8022 165.428 38.7306 164.856 38.5517C164.659 38.5159 164.462 38.4444 164.265 38.3728C162.225 37.675 160.615 36.0647 159.917 34.0249C159.846 33.8281 159.774 33.6313 159.738 33.4345C159.559 32.8619 159.488 32.2715 159.488 31.6452C159.488 31.019 159.559 30.4286 159.738 29.856C159.774 29.6592 159.846 29.4624 159.917 29.2656C160.615 27.2258 162.225 25.6155 164.265 24.9177C164.462 24.8461 164.659 24.7746 164.856 24.7388C165.428 24.5598 166.019 24.4883 166.645 24.4883C167.271 24.4883 167.861 24.5598 168.434 24.7388C168.631 24.7746 168.828 24.8461 169.024 24.9177C171.064 25.6155 172.675 27.2258 173.372 29.2656C173.444 29.4624 173.515 29.6592 173.551 29.856C173.73 30.4286 173.802 31.019 173.802 31.6452Z" fill="url(#paint14_radial_9751_99316)" />
		<path opacity="0.35" d="M206.903 22.6962C209.373 22.6962 211.376 20.6935 211.376 18.2231C211.376 15.7527 209.373 13.75 206.903 13.75C204.433 13.75 202.43 15.7527 202.43 18.2231C202.43 20.6935 204.433 22.6962 206.903 22.6962Z" fill="white" />
		<path opacity="0.35" d="M201.535 17.329C204.005 17.329 206.008 15.3263 206.008 12.8559C206.008 10.3855 204.005 8.38281 201.535 8.38281C199.064 8.38281 197.062 10.3855 197.062 12.8559C197.062 15.3263 199.064 17.329 201.535 17.329Z" fill="white" />
		<path opacity="0.35" d="M201.535 28.0673C204.005 28.0673 206.008 26.0646 206.008 23.5942C206.008 21.1238 204.005 19.1211 201.535 19.1211C199.064 19.1211 197.062 21.1238 197.062 23.5942C197.062 26.0646 199.064 28.0673 201.535 28.0673Z" fill="white" />
		<path opacity="0.35" d="M196.167 22.6962C198.638 22.6962 200.64 20.6935 200.64 18.2231C200.64 15.7527 198.638 13.75 196.167 13.75C193.697 13.75 191.694 15.7527 191.694 18.2231C191.694 20.6935 193.697 22.6962 196.167 22.6962Z" fill="white" />
		<path d="M204.199 12.8557C204.199 14.3319 202.997 15.5396 201.526 15.5396C200.055 15.5396 198.851 14.3319 198.851 12.8557C198.851 11.3796 200.054 10.1719 201.524 10.1719C202.995 10.1719 204.199 11.3796 204.199 12.8557Z" fill="url(#paint15_radial_9751_99316)" />
		<path d="M204.219 23.594C204.219 25.0701 203.017 26.2779 201.546 26.2779C200.075 26.2779 198.873 25.0701 198.873 23.594C198.873 22.1179 200.075 20.9102 201.546 20.9102C203.017 20.9102 204.219 22.1179 204.219 23.594Z" fill="url(#paint16_radial_9751_99316)" />
		<path d="M204.238 18.2229C204.238 16.7468 205.441 15.5391 206.912 15.5391C208.382 15.5391 209.587 16.7468 209.587 18.2229C209.587 19.699 208.384 20.9068 206.913 20.9068C205.443 20.9068 204.238 19.699 204.238 18.2229Z" fill="url(#paint17_radial_9751_99316)" />
		<path d="M198.832 18.2229C198.832 19.699 197.629 20.9068 196.159 20.9068C194.686 20.9068 193.484 19.699 193.484 18.2229C193.484 16.7468 194.686 15.5391 196.157 15.5391C197.628 15.5391 198.832 16.7468 198.832 18.2229Z" fill="url(#paint18_radial_9751_99316)" />
		<path d="M159.738 29.856C159.559 30.4286 159.488 31.019 159.488 31.6452C159.488 32.2715 159.559 32.8619 159.738 33.4345H164.856V29.856H159.738ZM164.856 33.4345V38.5517C165.428 38.7306 166.019 38.8022 166.645 38.8022C167.271 38.8022 167.861 38.7306 168.434 38.5517V33.4345H164.856ZM173.551 29.856H168.434V33.4345H173.551C173.73 32.8619 173.802 32.2715 173.802 31.6452C173.802 31.019 173.73 30.4286 173.551 29.856ZM166.645 24.4883C166.019 24.4883 165.428 24.5598 164.856 24.7388V29.856H168.434V24.7388C167.861 24.5598 167.271 24.4883 166.645 24.4883Z" fill="#64717C" />
		<path opacity="0.35" d="M154.12 24.4858C158.073 24.4858 161.277 21.2815 161.277 17.3288C161.277 13.3762 158.073 10.1719 154.12 10.1719C150.168 10.1719 146.963 13.3762 146.963 17.3288C146.963 21.2815 150.168 24.4858 154.12 24.4858Z" fill="white" />
		<path opacity="0.35" d="M188.116 38.8022C192.068 38.8022 195.273 35.5979 195.273 31.6452C195.273 27.6926 192.068 24.4883 188.116 24.4883C184.163 24.4883 180.959 27.6926 180.959 31.6452C180.959 35.5979 184.163 38.8022 188.116 38.8022Z" fill="white" />
		<path d="M154.12 22.6964C157.084 22.6964 159.488 20.2932 159.488 17.3287C159.488 14.3641 157.084 11.9609 154.12 11.9609C151.155 11.9609 148.752 14.3641 148.752 17.3287C148.752 20.2932 151.155 22.6964 154.12 22.6964Z" fill="url(#paint19_radial_9751_99316)" />
		<path d="M188.116 37.0128C191.08 37.0128 193.483 34.6096 193.483 31.6451C193.483 28.6806 191.08 26.2773 188.116 26.2773C185.151 26.2773 182.748 28.6806 182.748 31.6451C182.748 34.6096 185.151 37.0128 188.116 37.0128Z" fill="url(#paint20_radial_9751_99316)" />
		<path opacity="0.35" d="M177.38 19.1183C180.345 19.1183 182.748 16.715 182.748 13.7505C182.748 10.786 180.345 8.38281 177.38 8.38281C174.416 8.38281 172.013 10.786 172.013 13.7505C172.013 16.715 174.416 19.1183 177.38 19.1183Z" fill="white" />
		<path d="M180.959 13.7504C180.959 14.3229 180.816 14.8776 180.565 15.3607C180.422 15.6648 180.226 15.9332 180.011 16.1658C179.349 16.8815 178.418 17.3288 177.381 17.3288C176.343 17.3288 175.412 16.8815 174.75 16.1658C174.536 15.9332 174.339 15.6648 174.196 15.3607C173.945 14.8776 173.802 14.3229 173.802 13.7504C173.802 12.7484 174.232 11.818 174.911 11.1739C175.216 10.8697 175.573 10.6371 175.967 10.476C176.397 10.2792 176.88 10.1719 177.381 10.1719C177.882 10.1719 178.365 10.2792 178.794 10.476C179.188 10.6371 179.546 10.8697 179.85 11.1739C180.53 11.818 180.959 12.7484 180.959 13.7504Z" fill="url(#paint21_radial_9751_99316)" />
		<path d="M180.565 15.3612C180.422 15.6654 180.225 15.9337 180.011 16.1663C179.617 15.4685 178.848 14.4487 177.381 13.1246C177.023 12.8205 176.629 12.4805 176.2 12.1406C175.806 11.8364 175.377 11.5143 174.911 11.1744C175.216 10.8702 175.573 10.6376 175.967 10.4766C176.361 10.6376 176.862 10.8702 177.381 11.2102C177.756 11.4606 178.168 11.7648 178.561 12.1406C179.384 12.9099 180.136 13.9477 180.565 15.3612Z" fill="white" />
		<path d="M179.85 11.1744C179.385 11.5143 178.955 11.8364 178.562 12.1406C178.132 12.4805 177.739 12.8205 177.381 13.1246C175.914 14.4487 175.144 15.4685 174.751 16.1663C174.536 15.9337 174.339 15.6654 174.196 15.3612C174.625 13.9477 175.377 12.9099 176.2 12.1406C176.593 11.7648 177.005 11.4606 177.381 11.2102C177.9 10.8702 178.401 10.6376 178.794 10.4766C179.188 10.6376 179.546 10.8702 179.85 11.1744Z" fill="white" />
	</g>
	<g style="mix-blend-mode:luminosity" opacity="0.3">
		<path d="M298.377 5.36772H312.691C312.691 2.40295 310.127 0 306.965 0H304.102C300.941 0 298.377 2.40295 298.377 5.36772Z" fill="#3C3C3B" />
		<path d="M328.794 5.36772H343.108C343.108 2.40295 340.544 0 337.382 0H334.519C331.358 0 328.794 2.40295 328.794 5.36772Z" fill="#3C3C3B" />
		<path d="M303.744 3.57812H337.74C346.686 3.57812 352.054 7.15661 353.843 12.5243L355.632 21.4705L339.529 42.9414H303.744L287.641 21.4705L289.43 12.5243C291.22 7.15661 295.587 3.57812 303.744 3.57812Z" fill="url(#paint22_linear_9751_99316)" />
		<path d="M355.633 21.4727L339.529 42.9436L343.108 51.8898C346.686 59.0467 349.025 60.836 353.843 60.836C357.422 60.836 361 57.2575 361 51.8898C361 48.3113 355.633 21.4727 355.633 21.4727Z" fill="url(#paint23_linear_9751_99316)" />
		<path d="M287.641 21.4727L303.744 42.9436L300.4 51.8898C296.822 59.0467 294.483 60.836 289.665 60.836C286.086 60.836 282.274 57.2575 282.274 51.8898C282.274 48.3113 287.641 21.4727 287.641 21.4727Z" fill="url(#paint24_linear_9751_99316)" />
		<path opacity="0.07" d="M300.55 19.6798C302.953 19.6798 304.9 17.7324 304.9 15.3301C304.9 12.9279 302.953 10.9805 300.55 10.9805C298.148 10.9805 296.201 12.9279 296.201 15.3301C296.201 17.7324 298.148 19.6798 300.55 19.6798Z" stroke="#1D1D1B" stroke-width="5" />
		<path opacity="0.05" d="M300.55 10.9806C302.953 10.9806 304.9 12.9291 304.9 15.3303C304.9 17.7315 302.953 19.6817 300.55 19.6817C298.147 19.6817 296.201 17.7332 296.201 15.3321C296.201 12.9309 298.147 10.9806 300.55 10.9806ZM300.55 9.19141C297.165 9.19141 294.411 11.945 294.411 15.3303C294.411 18.7155 297.165 21.471 300.55 21.471C303.936 21.471 306.689 18.7173 306.689 15.3321C306.689 11.9468 303.936 9.19141 300.55 9.19141Z" fill="#1D1D1B" />
		<path d="M300.55 19.6798C302.953 19.6798 304.9 17.7324 304.9 15.3301C304.9 12.9279 302.953 10.9805 300.55 10.9805C298.148 10.9805 296.201 12.9279 296.201 15.3301C296.201 17.7324 298.148 19.6798 300.55 19.6798Z" fill="url(#paint25_linear_9751_99316)" />
		<path opacity="0.07" d="M329.179 33.9962C331.581 33.9962 333.528 32.0488 333.528 29.6465C333.528 27.2443 331.581 25.2969 329.179 25.2969C326.776 25.2969 324.829 27.2443 324.829 29.6465C324.829 32.0488 326.776 33.9962 329.179 33.9962Z" stroke="#1D1D1B" stroke-width="5" />
		<path opacity="0.05" d="M329.179 25.2931C331.582 25.2931 333.528 27.2416 333.528 29.6428C333.528 32.044 331.582 33.9942 329.179 33.9942C326.776 33.9942 324.829 32.0457 324.829 29.6446C324.829 27.2434 326.776 25.2931 329.179 25.2931ZM329.179 23.5039C325.793 23.5039 323.04 26.2576 323.04 29.6428C323.04 33.028 325.793 35.7835 329.179 35.7835C332.564 35.7835 335.317 33.0298 335.317 29.6446C335.317 26.2593 332.564 23.5039 329.179 23.5039Z" fill="#1D1D1B" />
		<path d="M329.179 33.9962C331.581 33.9962 333.528 32.0488 333.528 29.6465C333.528 27.2443 331.581 25.2969 329.179 25.2969C326.776 25.2969 324.829 27.2443 324.829 29.6465C324.829 32.0488 326.776 33.9962 329.179 33.9962Z" fill="url(#paint26_linear_9751_99316)" />
		<path opacity="0.07" d="M314.864 27.8558H311.286V24.2773H307.707V27.8558H304.129V31.4343H307.707V35.0128H311.286V31.4343H314.864V27.8558Z" stroke="#1D1D1B" stroke-width="5" />
		<path opacity="0.05" d="M311.286 24.2775V27.856H314.864V31.4345H311.286V35.013H307.707V31.4345H304.129V27.856H307.707V24.2775H311.286ZM313.075 22.4883H311.286H307.707H305.918V24.2775V26.0668H304.129H302.339V27.856V31.4345V33.2237H304.129H305.918V35.013V36.8022H307.707H311.286H313.075V35.013V33.2237H314.864H316.653V31.4345V27.856V26.0668H314.864H313.075V24.2775V22.4883Z" fill="#1D1D1B" />
		<path d="M314.864 27.8558H311.286V24.2773H307.707V27.8558H304.129V31.4343H307.707V35.0128H311.286V31.4343H314.864V27.8558Z" fill="url(#paint27_linear_9751_99316)" />
		<path opacity="0.07" d="M339.019 15.3326C340.502 15.3326 341.703 14.131 341.703 12.6487C341.703 11.1664 340.502 9.96484 339.019 9.96484C337.537 9.96484 336.335 11.1664 336.335 12.6487C336.335 14.131 337.537 15.3326 339.019 15.3326Z" stroke="#1D1D1B" stroke-width="5" />
		<path opacity="0.05" d="M339.019 9.96502C340.501 9.96502 341.703 11.1674 341.703 12.6489C341.703 14.1304 340.501 15.3327 339.019 15.3327C337.538 15.3327 336.335 14.1304 336.335 12.6489C336.335 11.1674 337.538 9.96502 339.019 9.96502ZM339.019 8.17578C336.552 8.17578 334.546 10.1833 334.546 12.6489C334.546 15.1145 336.552 17.122 339.019 17.122C341.487 17.122 343.492 15.1145 343.492 12.6489C343.492 10.1833 341.487 8.17578 339.019 8.17578Z" fill="#1D1D1B" />
		<path d="M339.019 15.3326C340.502 15.3326 341.703 14.131 341.703 12.6487C341.703 11.1664 340.502 9.96484 339.019 9.96484C337.537 9.96484 336.335 11.1664 336.335 12.6487C336.335 14.131 337.537 15.3326 339.019 15.3326Z" fill="url(#paint28_linear_9751_99316)" />
		<path opacity="0.07" d="M344.387 20.6998C345.87 20.6998 347.071 19.4981 347.071 18.0159C347.071 16.5336 345.87 15.332 344.387 15.332C342.905 15.332 341.704 16.5336 341.704 18.0159C341.704 19.4981 342.905 20.6998 344.387 20.6998Z" stroke="#1D1D1B" stroke-width="5" />
		<path opacity="0.05" d="M344.387 15.3322C345.869 15.3322 347.071 16.5346 347.071 18.0161C347.071 19.4976 345.869 20.6999 344.387 20.6999C342.906 20.6999 341.703 19.4976 341.703 18.0161C341.703 16.5346 342.906 15.3322 344.387 15.3322ZM344.387 13.543C341.92 13.543 339.914 15.5505 339.914 18.0161C339.914 20.4816 341.92 22.4892 344.387 22.4892C346.855 22.4892 348.86 20.4816 348.86 18.0161C348.86 15.5505 346.855 13.543 344.387 13.543Z" fill="#1D1D1B" />
		<path d="M344.387 20.6998C345.87 20.6998 347.071 19.4981 347.071 18.0159C347.071 16.5336 345.87 15.332 344.387 15.332C342.905 15.332 341.704 16.5336 341.704 18.0159C341.704 19.4981 342.905 20.6998 344.387 20.6998Z" fill="url(#paint29_linear_9751_99316)" />
		<path opacity="0.07" d="M339.019 26.0669C340.502 26.0669 341.703 24.8653 341.703 23.3831C341.703 21.9008 340.502 20.6992 339.019 20.6992C337.537 20.6992 336.335 21.9008 336.335 23.3831C336.335 24.8653 337.537 26.0669 339.019 26.0669Z" stroke="#1D1D1B" stroke-width="5" />
		<path opacity="0.05" d="M339.019 20.6994C340.501 20.6994 341.703 21.9018 341.703 23.3833C341.703 24.8648 340.501 26.0671 339.019 26.0671C337.538 26.0671 336.335 24.8648 336.335 23.3833C336.335 21.9018 337.538 20.6994 339.019 20.6994ZM339.019 18.9102C336.552 18.9102 334.546 20.9177 334.546 23.3833C334.546 25.8488 336.552 27.8564 339.019 27.8564C341.487 27.8564 343.492 25.8488 343.492 23.3833C343.492 20.9177 341.487 18.9102 339.019 18.9102Z" fill="#1D1D1B" />
		<path d="M339.019 26.0669C340.502 26.0669 341.703 24.8653 341.703 23.3831C341.703 21.9008 340.502 20.6992 339.019 20.6992C337.537 20.6992 336.335 21.9008 336.335 23.3831C336.335 24.8653 337.537 26.0669 339.019 26.0669Z" fill="url(#paint30_linear_9751_99316)" />
		<path opacity="0.07" d="M333.651 20.6998C335.134 20.6998 336.335 19.4981 336.335 18.0159C336.335 16.5336 335.134 15.332 333.651 15.332C332.169 15.332 330.968 16.5336 330.968 18.0159C330.968 19.4981 332.169 20.6998 333.651 20.6998Z" stroke="#1D1D1B" stroke-width="5" />
		<path opacity="0.05" d="M333.651 15.3322C335.133 15.3322 336.335 16.5346 336.335 18.0161C336.335 19.4976 335.133 20.6999 333.651 20.6999C332.17 20.6999 330.967 19.4976 330.967 18.0161C330.967 16.5346 332.17 15.3322 333.651 15.3322ZM333.651 13.543C331.184 13.543 329.178 15.5505 329.178 18.0161C329.178 20.4816 331.184 22.4892 333.651 22.4892C336.119 22.4892 338.124 20.4816 338.124 18.0161C338.124 15.5505 336.119 13.543 333.651 13.543Z" fill="#1D1D1B" />
		<path d="M333.651 20.6998C335.134 20.6998 336.335 19.4981 336.335 18.0159C336.335 16.5336 335.134 15.332 333.651 15.332C332.169 15.332 330.968 16.5336 330.968 18.0159C330.968 19.4981 332.169 20.6998 333.651 20.6998Z" fill="url(#paint31_linear_9751_99316)" />
	</g>
</svg>