<svg xmlns="http://www.w3.org/2000/svg" width="93" height="18" viewBox="0 0 93 18" fill="#37444C">
	<path d="M17.7941 7.09593C17.3 5.1628 15.4803 3.27195 13.8052 2.14832C12.3831 1.19384 11.3346 0.323929 9.18952 0.0279178C8.55683 -0.0747799 7.48427 0.10041 6.76119 0.644104C3.81466 2.75847 2.7662 3.00615 0.922358 5.56755C-0.120076 7.00532 -0.25264 9.34924 0.392102 11.2703C1.27787 13.8981 3.77851 15.934 7.64094 16.4052C8.5026 16.5139 10.2982 16.5502 11.6239 16.387C16.7577 15.7467 18.8968 11.4878 17.7941 7.09593ZM6.47799 13.6927C5.64645 13.6927 4.96556 12.3093 4.96556 10.5997C4.96556 8.89012 5.64645 7.50672 6.47799 7.50672C7.31555 7.50672 7.99042 8.89012 7.99042 10.5997C7.99042 12.3093 7.31555 13.6927 6.47799 13.6927ZM13.7329 13.4994C12.9495 13.4994 12.3108 12.1946 12.3108 10.5877C12.3108 8.97469 12.9495 7.66983 13.7329 7.66983C14.5222 7.66983 15.1609 8.97469 15.1609 10.5877C15.1609 12.1946 14.5222 13.4994 13.7329 13.4994Z" />
	<path d="M35.407 15.2034C32.8281 15.2034 30.8215 13.6026 30.8215 10.6002C30.8215 7.39841 33.0992 6.00293 35.4793 6.00293C37.6546 6.00293 40.1673 7.19301 40.1673 10.57C40.1673 13.1918 38.6066 15.2034 35.407 15.2034ZM35.5095 13.3972C36.805 13.3972 37.757 12.2071 37.757 10.57C37.757 9.03553 36.9375 7.8394 35.5095 7.8394C34.2501 7.8394 33.2318 8.79389 33.2318 10.57C33.2318 12.2071 34.1537 13.3972 35.5095 13.3972Z" />
	<path d="M43.4333 4.21473V13.9589C43.4333 14.6778 43.0235 15.0523 42.1739 15.0523C41.1556 15.0523 40.782 14.6778 40.782 13.7898V4.03954C40.782 3.42939 41.1857 2.95215 41.8003 2.95215H42.3426C43.0597 2.95215 43.4333 3.36294 43.4333 4.21473Z" />
	<path d="M47.9223 4.21473V13.9589C47.9223 14.6778 47.5125 15.0523 46.6629 15.0523C45.6446 15.0523 45.271 14.6778 45.271 13.7898V4.03954C45.271 3.42939 45.6747 2.95215 46.2893 2.95215H46.8316C47.5487 2.95215 47.9223 3.36294 47.9223 4.21473Z" />
	<path d="M49.278 6.23828H49.8926C50.471 6.23828 50.8085 6.61283 50.9772 7.33171L51.6581 10.467C51.8268 11.3188 52.0678 11.4879 52.339 11.4879C52.6764 11.4879 52.8813 10.9442 52.9837 10.4308L53.7008 7.12631C53.8333 6.54637 54.2431 6.23828 54.8878 6.23828H55.4663C55.876 6.23828 56.2135 6.51013 56.2135 6.85447C56.2135 7.09007 56.1833 7.25922 56.1472 7.39816L53.4598 15.5777C52.7789 17.6921 51.6942 18.0002 50.706 18.0002H49.8564C49.3141 18.0002 48.9405 17.6558 48.9405 17.0759C48.9405 16.5322 49.3141 16.2604 49.9287 16.1214C50.5735 15.9885 50.9109 15.5415 50.9109 15.0642C50.9109 14.4903 48.7718 8.14725 48.6694 7.7727C48.2596 6.40743 48.8019 6.23828 49.278 6.23828Z" />
	<path d="M67.0056 9.10154C67.0056 13.3303 65.1075 15.064 60.5521 15.064H57.9008C57.1476 15.064 56.8765 14.7922 56.8765 13.7713V4.67346C56.8765 3.99082 57.1838 3.64648 57.8285 3.64648H61.3294C64.9327 3.64648 67.0056 5.62794 67.0056 9.10154ZM59.2265 11.7596C59.2265 12.7141 59.7989 13.1913 60.9558 13.1913C63.3359 13.1913 64.6616 11.8321 64.6616 9.44588C64.6616 6.98718 63.4745 5.52525 60.992 5.52525C59.6663 5.52525 59.2265 5.93604 59.2265 7.22882V11.7596Z" />
	<path d="M74.8448 10.9445H74.0614H71.3077C70.5244 10.9445 70.1207 11.2526 70.1207 11.8326C70.1207 12.5817 71.0004 13.3972 71.8862 13.3972C73.3504 13.3972 73.5854 12.2071 74.4712 12.2071C75.0135 12.2071 75.6281 12.6844 75.6281 13.0891C75.6281 13.6388 74.4049 15.1672 71.856 15.1672C69.3735 15.1672 67.4995 13.6388 67.4995 10.7391C67.4995 7.25951 69.6085 5.93652 71.8199 5.93652C75.5256 5.93652 76.0017 9.27118 76.0017 9.95381C76.0017 10.7391 75.6582 10.9445 74.8448 10.9445ZM71.6512 9.57927C72.7719 9.57927 73.3504 9.34367 73.3504 8.86643C73.3504 8.31669 72.6333 7.70655 71.8199 7.70655C71.139 7.70655 70.2532 8.18379 70.2532 8.79393C70.2532 9.30742 70.7292 9.57927 71.6512 9.57927Z" />
	<path d="M80.9125 5.88184C82.6118 5.88184 84.4134 6.87257 84.4134 7.75456C84.4134 8.20159 83.8711 8.70904 83.1239 8.70904C82.4069 8.70904 82.0032 7.92975 81.0813 7.92975C80.2678 7.92975 79.1109 8.53989 79.1109 10.5516C79.1109 12.3216 80.0268 13.2459 81.1837 13.2459C82.5455 13.2459 82.443 12.3941 83.4313 12.3941C83.9374 12.3941 84.4496 12.7324 84.4496 13.2459C84.4496 13.9285 83.0215 15.2575 80.9125 15.2575C78.2974 15.2575 76.3933 13.6869 76.3933 10.5878C76.3933 7.85725 78.1588 5.88184 80.9125 5.88184Z" />
	<path d="M92.6927 13.7044C92.8975 14.0427 93 14.3145 93 14.4897C93 14.8642 92.6565 15.0334 91.9816 15.0334C91.2284 15.0334 90.656 14.7615 90.3125 14.2118L89.4268 12.7499C89.0893 12.2062 88.7519 11.9283 88.4084 11.9283C87.9023 11.9283 87.354 12.3753 87.354 13.6379C87.354 14.5561 87.1852 15.0334 86.2332 15.0334C85.3173 15.0334 85.0461 14.6588 85.0461 13.8735V4.36491C85.0461 3.64603 85.3474 3.27148 86.197 3.27148C86.9804 3.27148 87.354 3.61582 87.354 4.36491C87.354 8.0137 87.3238 8.49094 87.9686 8.49094C88.1734 8.49094 88.4084 8.41845 89.0231 7.8083C89.0231 7.8083 89.1918 7.60291 89.5654 7.19212C89.939 6.81757 90.18 6.61218 90.2824 6.58197C90.5536 6.40678 90.9573 6.34033 91.5056 6.34033H91.7406C92.2528 6.34033 92.4878 6.50948 92.4878 6.81757C92.4878 6.98672 92.3854 7.19212 92.1504 7.46396L90.9573 8.82924C90.656 9.20378 90.5837 9.57833 90.5837 9.71727C90.5837 10.0254 90.656 10.261 90.7524 10.4301L92.6927 13.7044Z" />
	<path d="M29.984 4.38927C29.984 4.38927 30.0262 3.13878 28.5138 3.13878C26.9832 3.13878 26.4229 3.12065 25.5311 3.56165C24.7056 3.96036 24.1753 5.22898 25.5732 5.66393C26.1095 5.79683 27.0435 5.72434 27.0435 5.72434C27.0435 5.72434 27.0435 11.0163 27.0435 11.3969C27.0435 11.7775 26.9953 12.5265 26.1758 12.6413C25.1936 12.7138 24.808 11.8741 24.7116 11.7412C24.5067 11.4573 23.8861 10.8894 23.0304 11.5419C22.1808 12.1883 22.687 13.2756 22.687 13.2756C22.687 13.2756 23.4281 15.1302 26.4108 15.2027C30.0925 15.2933 30.0021 12.1641 30.0021 12.1641L29.984 4.38927Z" />
</svg>