<svg xmlns="http://www.w3.org/2000/svg" width="19" height="14" viewBox="0 0 19 14">
	<rect width="19" height="13.5714" fill="#F1361D" />
	<path fill-rule="evenodd" clip-rule="evenodd" d="M6.83502 2.10413L7.49218 2.21617L7.98505 2.66504L8.09709 2.00788L8.54596 1.51501L7.8888 1.40297L7.39593 0.954102L7.28389 1.61126L6.83502 2.10413ZM8.59525 4.40237L9.16471 4.05579L9.83118 4.07121L9.4846 3.50174L9.50001 2.83528L8.93054 3.18186L8.26408 3.16644L8.61066 3.73591L8.59525 4.40237ZM7.82274 8.1229L7.26572 8.48915L7.25786 7.82255L6.89162 7.26553L7.55821 7.25768L8.11524 6.89143L8.12309 7.55803L8.48933 8.11505L7.82274 8.1229ZM8.30649 6.39995L8.96908 6.32651L9.56658 6.62214L9.49314 5.95956L9.78877 5.36205L9.12619 5.43549L8.52868 5.13986L8.60212 5.80245L8.30649 6.39995Z" fill="#FFDC42" />
	<path fill-rule="evenodd" clip-rule="evenodd" d="M4.5238 5.58243L2.92838 6.71976L3.51703 4.85097L1.94236 3.6851L3.90158 3.66745L4.5238 1.80957L5.14601 3.66745L7.10523 3.6851L5.53056 4.85097L6.11921 6.71976L4.5238 5.58243Z" fill="#FFDC42" />
</svg>