<svg xmlns="http://www.w3.org/2000/svg" width="118" height="23" viewBox="0 0 118 23" fill="#EDF0F2">
	<path d="M22.5775 9.00344C21.9506 6.55065 19.6416 4.15151 17.5162 2.72583C15.7119 1.51476 14.3816 0.411006 11.6598 0.0354225C10.8571 -0.094882 9.49617 0.127402 8.57872 0.81725C4.84011 3.49999 3.5098 3.81425 1.1703 7.0642C-0.152355 8.88846 -0.320554 11.8625 0.497506 14.2999C1.62138 17.6342 4.79423 20.2173 9.69495 20.8152C10.7882 20.9531 13.0666 20.9991 14.7486 20.7922C21.2625 19.9797 23.9766 14.5759 22.5775 9.00344ZM8.21938 17.3736C7.16431 17.3736 6.30038 15.6183 6.30038 13.4491C6.30038 11.2799 7.16431 9.52466 8.21938 9.52466C9.2821 9.52466 10.1384 11.2799 10.1384 13.4491C10.1384 15.6183 9.2821 17.3736 8.21938 17.3736ZM17.4245 17.1283C16.4306 17.1283 15.6202 15.4727 15.6202 13.4338C15.6202 11.3872 16.4306 9.73161 17.4245 9.73161C18.426 9.73161 19.2364 11.3872 19.2364 13.4338C19.2364 15.4727 18.426 17.1283 17.4245 17.1283Z" />
	<path d="M44.9251 19.29C41.6529 19.29 39.1069 17.2587 39.1069 13.4493C39.1069 9.38682 41.9969 7.61621 45.0168 7.61621C47.7768 7.61621 50.965 9.12621 50.965 13.4109C50.965 16.7375 48.9848 19.29 44.9251 19.29ZM45.0551 16.9981C46.6988 16.9981 47.9068 15.4881 47.9068 13.4109C47.9068 11.464 46.867 9.94636 45.0551 9.94636C43.4572 9.94636 42.1651 11.1574 42.1651 13.4109C42.1651 15.4881 43.3349 16.9981 45.0551 16.9981Z" />
	<path d="M55.1089 5.3471V17.7107C55.1089 18.6228 54.589 19.0981 53.511 19.0981C52.2189 19.0981 51.7449 18.6228 51.7449 17.4961V5.12481C51.7449 4.35065 52.2571 3.74512 53.0369 3.74512H53.725C54.6348 3.74512 55.1089 4.26634 55.1089 5.3471Z" />
	<path d="M60.8047 5.3471V17.7107C60.8047 18.6228 60.2848 19.0981 59.2068 19.0981C57.9147 19.0981 57.4407 18.6228 57.4407 17.4961V5.12481C57.4407 4.35065 57.9529 3.74512 58.7328 3.74512H59.4208C60.3306 3.74512 60.8047 4.26634 60.8047 5.3471Z" />
	<path d="M62.5247 7.91504H63.3045C64.0384 7.91504 64.4666 8.39027 64.6807 9.3024L65.5446 13.2805C65.7587 14.3613 66.0645 14.5759 66.4085 14.5759C66.8367 14.5759 67.0966 13.8861 67.2266 13.2345L68.1364 9.04179C68.3046 8.30595 68.8245 7.91504 69.6425 7.91504H70.3765C70.8964 7.91504 71.3245 8.25996 71.3245 8.69687C71.3245 8.9958 71.2863 9.21042 71.2404 9.38671L67.8306 19.7651C66.9666 22.4478 65.5905 22.8387 64.3366 22.8387H63.2586C62.5705 22.8387 62.0965 22.4018 62.0965 21.666C62.0965 20.9761 62.5705 20.6312 63.3504 20.4549C64.1684 20.2863 64.5966 19.7191 64.5966 19.1136C64.5966 18.3854 61.8824 10.3372 61.7525 9.86194C61.2326 8.12966 61.9207 7.91504 62.5247 7.91504Z" />
	<path d="M85.0177 11.5484C85.0177 16.9139 82.6094 19.1137 76.8295 19.1137H73.4655C72.5098 19.1137 72.1658 18.7688 72.1658 17.4734V5.93C72.1658 5.06386 72.5557 4.62695 73.3737 4.62695H77.8157C82.3877 4.62695 85.0177 7.14106 85.0177 11.5484ZM75.1475 14.921C75.1475 16.1321 75.8738 16.7376 77.3417 16.7376C80.3617 16.7376 82.0437 15.013 82.0437 11.9853C82.0437 8.86568 80.5375 7.01076 77.3876 7.01076C75.7056 7.01076 75.1475 7.53198 75.1475 9.17228V14.921Z" />
	<path d="M94.9643 13.8865H93.9704H90.4764C89.4825 13.8865 88.9703 14.2774 88.9703 15.0132C88.9703 15.9637 90.0865 16.9985 91.2104 16.9985C93.0682 16.9985 93.3664 15.4885 94.4903 15.4885C95.1784 15.4885 95.9582 16.094 95.9582 16.6076C95.9582 17.3051 94.4062 19.2443 91.1722 19.2443C88.0223 19.2443 85.6445 17.3051 85.6445 13.6259C85.6445 9.21086 88.3204 7.53223 91.1263 7.53223C95.8282 7.53223 96.4322 11.7633 96.4322 12.6294C96.4322 13.6259 95.9964 13.8865 94.9643 13.8865ZM90.9122 12.1542C92.3343 12.1542 93.0682 11.8553 93.0682 11.2497C93.0682 10.5522 92.1584 9.77806 91.1263 9.77806C90.2624 9.77806 89.1385 10.3836 89.1385 11.1578C89.1385 11.8093 89.7425 12.1542 90.9122 12.1542Z" />
	<path d="M102.663 7.46289C104.819 7.46289 107.105 8.71995 107.105 9.83903C107.105 10.4062 106.417 11.0501 105.469 11.0501C104.559 11.0501 104.047 10.0613 102.877 10.0613C101.845 10.0613 100.377 10.8355 100.377 13.3879C100.377 15.6337 101.539 16.8065 103.007 16.8065C104.735 16.8065 104.605 15.7257 105.859 15.7257C106.501 15.7257 107.151 16.155 107.151 16.8065C107.151 17.6726 105.339 19.3589 102.663 19.3589C99.3452 19.3589 96.9292 17.366 96.9292 13.4339C96.9292 9.96934 99.1693 7.46289 102.663 7.46289Z" />
	<path d="M117.61 17.3888C117.87 17.818 118 18.1629 118 18.3852C118 18.8604 117.564 19.0751 116.708 19.0751C115.752 19.0751 115.026 18.7301 114.59 18.0326L113.466 16.1777C113.038 15.4879 112.61 15.1353 112.174 15.1353C111.532 15.1353 110.836 15.7025 110.836 17.3045C110.836 18.4695 110.622 19.0751 109.414 19.0751C108.252 19.0751 107.908 18.5998 107.908 17.6034V5.53873C107.908 4.6266 108.29 4.15137 109.368 4.15137C110.362 4.15137 110.836 4.58827 110.836 5.53873C110.836 10.1684 110.798 10.7739 111.616 10.7739C111.876 10.7739 112.174 10.6819 112.954 9.90776C112.954 9.90776 113.168 9.64715 113.642 9.12593C114.116 8.65071 114.422 8.3901 114.552 8.35177C114.896 8.12949 115.408 8.04517 116.104 8.04517H116.402C117.052 8.04517 117.35 8.25979 117.35 8.65071C117.35 8.86532 117.22 9.12593 116.922 9.47086L115.408 11.2031C115.026 11.6784 114.934 12.1536 114.934 12.3299C114.934 12.7208 115.026 13.0197 115.148 13.2344L117.61 17.3888Z" />
	<path d="M38.0441 5.5692C38.0441 5.5692 38.0977 3.98255 36.1787 3.98255C34.2367 3.98255 33.5257 3.95956 32.3942 4.5191C31.3468 5.02499 30.674 6.63463 32.4477 7.18651C33.1281 7.35514 34.3132 7.26316 34.3132 7.26316C34.3132 7.26316 34.3132 13.9777 34.3132 14.4606C34.3132 14.9435 34.252 15.8939 33.2122 16.0396C31.966 16.1315 31.4767 15.0661 31.3544 14.8975C31.0945 14.5372 30.307 13.8167 29.2213 14.6445C28.1433 15.4647 28.7855 16.8444 28.7855 16.8444C28.7855 16.8444 29.7259 19.1975 33.5104 19.2895C38.1818 19.4045 38.0671 15.434 38.0671 15.434L38.0441 5.5692Z" />
</svg>