<svg width="23" height="21" viewBox="0 0 23 21" fill="none" xmlns="http://www.w3.org/2000/svg">
<path fill-rule="evenodd" clip-rule="evenodd" d="M22.5775 9.00344C21.9506 6.55068 19.6416 4.15151 17.5162 2.72585C17.3097 2.58718 17.1094 2.44991 16.9123 2.31503C15.389 1.27163 14.0699 0.368005 11.6598 0.0354243C10.857 -0.0948857 9.4962 0.127404 8.57872 0.817285C7.63463 1.49471 6.8441 2.02114 6.15209 2.48196C4.10387 3.84591 2.91893 4.63497 1.17028 7.06423C-0.152356 8.88851 -0.320569 11.8625 0.497546 14.3C1.62133 17.6342 4.79418 20.2173 9.69493 20.8152C10.7882 20.9531 13.0665 20.9992 14.7485 20.7922C21.2624 19.9797 23.9766 14.5759 22.5775 9.00344ZM8.21935 17.3736C7.16429 17.3736 6.3004 15.6183 6.3004 13.4491C6.3004 11.2799 7.16429 9.52468 8.21935 9.52468C9.28209 9.52468 10.1384 11.2799 10.1384 13.4491C10.1384 15.6183 9.28209 17.3736 8.21935 17.3736ZM17.4244 17.1283C16.4305 17.1283 15.6201 15.4727 15.6201 13.4338C15.6201 11.3873 16.4305 9.73165 17.4244 9.73165C18.426 9.73165 19.2364 11.3873 19.2364 13.4338C19.2364 15.4727 18.426 17.1283 17.4244 17.1283Z" fill="white"/>
</svg>
