<svg width="19" height="14" viewBox="0 0 19 14" fill="none" xmlns="http://www.w3.org/2000/svg">
<path fill-rule="evenodd" clip-rule="evenodd" d="M0 0V14H19V0H0Z" fill="#F7FCFF"/>
<path fill-rule="evenodd" clip-rule="evenodd" d="M0 0V4.66667H19V0H0Z" fill="#E31D1C"/>
<path fill-rule="evenodd" clip-rule="evenodd" d="M0 9.33301V13.9997H19V9.33301H0Z" fill="#3D58DB"/>
<rect x="5.98291" y="3.73145" width="6.76875" height="2.33333" fill="#E31D1C"/>
<path d="M6.27164 5.17969H12.3902C12.4012 5.62086 12.4045 6.43244 12.4044 7.21089C12.4044 7.69741 12.4031 8.16579 12.4018 8.51258L12.4 8.92851L12.3994 9.04377L12.3993 9.06354L12.3984 9.06896C12.3957 9.08502 12.3911 9.11003 12.3842 9.14269C12.3703 9.2081 12.3469 9.30375 12.3098 9.41951C12.2354 9.65183 12.1072 9.96032 11.8932 10.2673C11.4731 10.8699 10.7088 11.4891 9.29201 11.4891C7.87673 11.4891 7.14823 10.8703 6.76117 10.2724C6.56324 9.96672 6.45049 9.65907 6.38746 9.42687C6.35606 9.31123 6.33737 9.21565 6.32664 9.15028C6.32129 9.11763 6.31794 9.09265 6.316 9.07662L6.3146 9.06417L6.31426 9.03643L6.31284 8.92191L6.3078 8.50858C6.30363 8.1639 6.29806 7.69802 6.2925 7.21324C6.28371 6.44691 6.27494 5.63546 6.27164 5.17969Z" fill="#F7FCFF" stroke="#E31D1C" stroke-width="0.5625"/>
<mask id="mask2_19012_3550" style="mask-type:luminance" maskUnits="userSpaceOnUse" x="5" y="4" width="8" height="8">
<path d="M6.27164 5.17969H12.3902C12.4012 5.62086 12.4045 6.43244 12.4044 7.21089C12.4044 7.69741 12.4031 8.16579 12.4018 8.51258L12.4 8.92851L12.3994 9.04377L12.3993 9.06354L12.3984 9.06896C12.3957 9.08502 12.3911 9.11003 12.3842 9.14269C12.3703 9.2081 12.3469 9.30375 12.3098 9.41951C12.2354 9.65183 12.1072 9.96032 11.8932 10.2673C11.4731 10.8699 10.7088 11.4891 9.29201 11.4891C7.87673 11.4891 7.14823 10.8703 6.76117 10.2724C6.56324 9.96672 6.45049 9.65907 6.38746 9.42687C6.35606 9.31123 6.33737 9.21565 6.32664 9.15028C6.32129 9.11763 6.31794 9.09265 6.316 9.07662L6.3146 9.06417L6.31426 9.03643L6.31284 8.92191L6.3078 8.50858C6.30363 8.1639 6.29806 7.69802 6.2925 7.21324C6.28371 6.44691 6.27494 5.63546 6.27164 5.17969Z" fill="white" stroke="white" stroke-width="0.5625"/>
</mask>
<g mask="url(#mask2_19012_3550)">
<path fill-rule="evenodd" clip-rule="evenodd" d="M6.2334 5.27344H7.48584V6.52288H6.2334V5.27344ZM7.48584 6.52288H8.73828V7.77232H7.48584V6.52288ZM9.99072 7.77232H8.73828V9.02176H7.48584V10.2712H8.73828V11.5206H9.99072V10.2712H11.2432V11.5206H12.4956V10.2712H11.2432V9.02176H12.4956V7.77232H11.2432V6.52288H12.4956V5.27344H11.2432V6.52288H9.99072V5.27344H8.73828V6.52288H9.99072V7.77232ZM9.99072 9.02176H11.2432V7.77232H9.99072V9.02176ZM9.99072 9.02176V10.2712H8.73828V9.02176H9.99072ZM6.2334 7.77232H7.48584V9.02176H6.2334V7.77232ZM7.48584 10.2712H6.2334V11.5206H7.48584V10.2712Z" fill="#F50100"/>
</g>
<path fill-rule="evenodd" clip-rule="evenodd" d="M6.20645 4.76128C6.20645 4.76128 6.59383 4.55799 6.92424 4.45323C7.25466 4.34846 7.51581 4.29122 7.51581 4.29122L7.02422 2.51083L6.03959 2.14941L5.48193 3.05247L6.20645 4.76128Z" fill="#56C6F5" stroke="white" stroke-width="0.15"/>
<path fill-rule="evenodd" clip-rule="evenodd" d="M8.63361 4.12768C8.63361 4.12768 8.96397 4.09871 9.3111 4.10534C9.65823 4.11196 9.95188 4.11438 9.95188 4.11438L10.1214 2.35885L9.37786 1.69888L8.55133 2.37437L8.63361 4.12768Z" fill="#56C6F5" stroke="white" stroke-width="0.15"/>
<path d="M7.4168 4.27379L7.43854 4.34637L7.5109 4.32388L7.5109 4.32388L7.5109 4.32388L7.51094 4.32387L7.51112 4.32381L7.5119 4.32358L7.51504 4.32261L7.52735 4.31885L7.57335 4.30509C7.61249 4.29355 7.66706 4.27784 7.72873 4.26116C7.85311 4.22751 8.00265 4.19098 8.11291 4.17593C8.22563 4.16054 8.3649 4.14942 8.47699 4.14213C8.53282 4.1385 8.58151 4.13585 8.61622 4.13411L8.6569 4.13216L8.66774 4.13169L8.67051 4.13157L8.67119 4.13154L8.67136 4.13154L8.67139 4.13154L8.6714 4.13154L8.74996 4.12836L8.74309 4.05004L8.5933 2.34413L8.59023 2.30923L8.5615 2.28918L7.75238 1.72463L7.70038 1.68834L7.65595 1.73359L6.9206 2.48254L6.88956 2.51416L6.90228 2.55661L7.4168 4.27379Z" fill="#2E42A5" stroke="white" stroke-width="0.15"/>
<path d="M11.2322 4.27213L11.2116 4.3469L11.1376 4.32388L11.1376 4.32388L11.1376 4.32388L11.1375 4.32387L11.1373 4.32381L11.1366 4.32358L11.1334 4.32261L11.1211 4.31885L11.0751 4.30509C11.036 4.29355 10.9814 4.27784 10.9197 4.26116C10.7954 4.22751 10.6458 4.19098 10.5356 4.17593C10.4228 4.16054 10.2836 4.14942 10.1715 4.14213C10.1156 4.1385 10.067 4.13585 10.0323 4.13411L9.99157 4.13216L9.98073 4.13169L9.97796 4.13157L9.97728 4.13154L9.97712 4.13154L9.97708 4.13154L9.97707 4.13154L9.89851 4.12836L9.90539 4.05004L10.0552 2.34413L10.0582 2.30923L10.087 2.28918L10.8961 1.72463L10.9496 1.68731L10.9939 1.73508L11.6873 2.4812L11.7157 2.51182L11.7046 2.55212L11.2322 4.27213Z" fill="#2E42A5" stroke="white" stroke-width="0.15"/>
<path d="M12.6105 4.74714L12.578 4.82052L12.507 4.78324L12.507 4.78324L12.507 4.78322L12.5068 4.78313L12.506 4.78273L12.5029 4.78109L12.4903 4.77462C12.4793 4.76898 12.4632 4.76075 12.4427 4.75054C12.4017 4.7301 12.3437 4.70175 12.2754 4.67016C12.1383 4.60673 11.9622 4.53124 11.8014 4.48027C11.6378 4.4284 11.4913 4.38827 11.3857 4.36112C11.3329 4.34755 11.2904 4.33724 11.2612 4.33034L11.2277 4.32257L11.2192 4.32064L11.2171 4.32017L11.2166 4.32006L11.2165 4.32003L11.2164 4.32003L11.2164 4.32003L11.1382 4.30288L11.1605 4.22592L11.6628 2.48999L11.6733 2.45351L11.709 2.44043L12.6936 2.07901L12.7511 2.05791L12.7833 2.11001L13.3409 3.01307L13.3617 3.04666L13.3457 3.08278L12.6105 4.74714Z" fill="#56C6F5" stroke="white" stroke-width="0.15"/>
</svg>
