<svg xmlns="http://www.w3.org/2000/svg" width="50" height="50" viewBox="0 0 50 50" fill="white">
	<path d="M20.0824 6.64741C16.2272 7.68043 12.7951 9.90131 10.2732 12.9949C7.75133 16.0886 6.26773 19.8978 6.03291 23.8822C5.79809 27.8665 6.82398 31.8237 8.96501 35.1921C11.106 38.5606 14.2535 41.1692 17.9607 42.6479C21.668 44.1266 25.7468 44.4003 29.6184 43.4302C33.49 42.46 36.9577 40.2952 39.5296 37.243C42.1014 34.1908 43.6468 30.4062 43.9464 26.4262C44.246 22.4462 43.2846 18.4729 41.1987 15.0701L39.4997 16.1115C41.3669 19.1574 42.2275 22.714 41.9593 26.2766C41.6911 29.8392 40.3078 33.2269 38.0057 35.959C35.7036 38.6911 32.5995 40.6288 29.134 41.4972C25.6685 42.3656 22.0175 42.1206 18.699 40.797C15.3806 39.4734 12.5633 37.1383 10.6468 34.1232C8.73029 31.108 7.81199 27.5659 8.02219 23.9994C8.23238 20.4329 9.56038 17.0232 11.8178 14.254C14.0751 11.4849 17.1473 9.49692 20.5982 8.57224L20.0824 6.64741Z" />
</svg>