<svg xmlns="http://www.w3.org/2000/svg" width="19" height="14" viewBox="0 0 19 14" fill="none">
	<rect x="0.25" y="0.25" width="18.5" height="13.5" rx="1.75" fill="white" stroke="#F5F5F5" stroke-width="0.5" />
	<mask id="mask0" mask-type="alpha" maskUnits="userSpaceOnUse" x="0" y="0" width="19" height="14">
		<rect x="0.25" y="0.25" width="18.5" height="13.5" rx="1.75" fill="white" stroke="white" stroke-width="0.5" />
	</mask>
	<g mask="url(#mask0)">
		<path fill-rule="evenodd" clip-rule="evenodd" d="M9.50001 10.2667C11.2489 10.2667 12.6667 8.8042 12.6667 7.00007C12.6667 5.19593 11.2489 3.7334 9.50001 3.7334C7.75111 3.7334 6.33334 5.19593 6.33334 7.00007C6.33334 8.8042 7.75111 10.2667 9.50001 10.2667Z" fill="#E01B41" />
		<mask id="mask1" mask-type="alpha" maskUnits="userSpaceOnUse" x="6" y="3" width="7" height="8">
			<path fill-rule="evenodd" clip-rule="evenodd" d="M9.50001 10.2667C11.2489 10.2667 12.6667 8.8042 12.6667 7.00007C12.6667 5.19593 11.2489 3.7334 9.50001 3.7334C7.75111 3.7334 6.33334 5.19593 6.33334 7.00007C6.33334 8.8042 7.75111 10.2667 9.50001 10.2667Z" fill="white" />
		</mask>
		<g mask="url(#mask1)">
			<path fill-rule="evenodd" clip-rule="evenodd" d="M6.33333 7.46699C7.23809 8.34199 8.59523 8.86699 9.5 7.46699C10.4048 6.06699 12.2143 6.06699 12.6667 7.46699C13.119 8.86699 12.6667 10.267 12.6667 10.267H6.33333C6.33333 10.267 5.42857 6.59199 6.33333 7.46699Z" fill="#0E4B9C" />
		</g>
		<path opacity="0.75" fill-rule="evenodd" clip-rule="evenodd" d="M4.13916 2.5783C4.22907 2.41766 4.43018 2.36379 4.58835 2.458L4.79912 2.58353C4.95729 2.67773 5.01262 2.88433 4.92271 3.04497L3.89116 4.88809C3.80125 5.04874 3.60014 5.1026 3.44198 5.0084L3.2312 4.88287C3.07304 4.78867 3.0177 4.58207 3.10761 4.42142L4.13916 2.5783ZM14.2008 2.58376C14.0427 2.67796 13.9873 2.88455 14.0772 3.0452L15.1088 4.88832C15.1987 5.04897 15.3998 5.10283 15.558 5.00863L15.7687 4.8831C15.9269 4.78889 15.9823 4.5823 15.8923 4.42165L14.8608 2.57853C14.7709 2.41789 14.5698 2.36402 14.4116 2.45822L14.2008 2.58376ZM13.0255 3.28376C12.8673 3.37796 12.812 3.58455 12.9019 3.7452L13.9335 5.58832C14.0234 5.74897 14.2245 5.80283 14.3827 5.70863L14.5934 5.5831C14.7516 5.48889 14.8069 5.2823 14.717 5.12165L13.6855 3.27853C13.5956 3.11789 13.3945 3.06402 13.2363 3.15822L13.0255 3.28376ZM3.10761 9.5783C3.0177 9.41766 3.07303 9.21106 3.2312 9.11686L3.44197 8.99133C3.60014 8.89713 3.80124 8.95099 3.89115 9.11164L4.92271 10.9548C5.01262 11.1154 4.95728 11.322 4.79911 11.4162L4.58834 11.5417C4.43017 11.6359 4.22907 11.5821 4.13916 11.4214L3.10761 9.5783ZM4.40652 8.41686C4.24836 8.51106 4.19302 8.71766 4.28293 8.8783L5.31448 10.7214C5.40439 10.8821 5.6055 10.9359 5.76367 10.8417L5.97444 10.7162C6.1326 10.622 6.18794 10.4154 6.09803 10.2548L5.06648 8.41164C4.97657 8.25099 4.77546 8.19713 4.61729 8.29133L4.40652 8.41686ZM13.9335 8.41175C14.0234 8.25111 14.2245 8.19724 14.3827 8.29144L14.5934 8.41698C14.7516 8.51118 14.8069 8.71777 14.717 8.87842L13.6855 10.7215C13.5956 10.8822 13.3945 10.936 13.2363 10.8418L13.0255 10.7163C12.8673 10.6221 12.812 10.4155 12.9019 10.2549L13.9335 8.41175ZM15.558 8.99144C15.3998 8.89724 15.1987 8.95111 15.1088 9.11175L14.0772 10.9549C13.9873 11.1155 14.0427 11.3221 14.2008 11.4163L14.4116 11.5418C14.5698 11.636 14.7709 11.5822 14.8608 11.4215L15.8923 9.57842C15.9823 9.41777 15.9269 9.21118 15.7688 9.11698L15.558 8.99144ZM5.76367 3.158C5.6055 3.06379 5.4044 3.11766 5.31449 3.2783L4.28294 5.12142C4.19303 5.28207 4.24836 5.48867 4.40653 5.58287L4.6173 5.7084C4.77547 5.8026 4.97657 5.74874 5.06648 5.58809L6.09803 3.74497C6.18794 3.58433 6.13261 3.37773 5.97444 3.28353L5.76367 3.158Z" fill="#262626" />
	</g>
</svg>