<svg xmlns="http://www.w3.org/2000/svg" width="19" height="14" viewBox="0 0 19 14">
	<rect width="19" height="14" fill="#FF2936" />
	<path fill-rule="evenodd" clip-rule="evenodd" d="M0 14H7.2381V0H0V14Z" fill="#128415" />
	<path d="M7.23811 9.5333C8.62506 9.5333 9.7143 8.3794 9.7143 6.99997C9.7143 5.62054 8.62506 4.46663 7.23811 4.46663C5.85116 4.46663 4.76192 5.62054 4.76192 6.99997C4.76192 8.3794 5.85116 9.5333 7.23811 9.5333Z" stroke="#FAF94F" stroke-width="1.33333" />
	<path fill-rule="evenodd" clip-rule="evenodd" d="M6.33331 5.93343C6.33331 5.74934 6.48255 5.6001 6.66665 5.6001H7.8095C7.9936 5.6001 8.14284 5.74934 8.14284 5.93343V7.49534C8.14284 7.99502 7.73776 8.4001 7.23807 8.4001C6.73839 8.4001 6.33331 7.99502 6.33331 7.49534V5.93343Z" fill="white" />
	<path fill-rule="evenodd" clip-rule="evenodd" d="M7.23809 7.46689C7.48793 7.46689 7.69047 6.79129 7.69047 6.53356C7.69047 6.27583 7.48793 6.06689 7.23809 6.06689C6.98824 6.06689 6.78571 6.27583 6.78571 6.53356C6.78571 6.79129 6.98824 7.46689 7.23809 7.46689Z" fill="#1D50B5" />
</svg>