<svg xmlns="http://www.w3.org/2000/svg" width="19" height="14" viewBox="0 0 19 14">
	<path fill-rule="evenodd" clip-rule="evenodd" d="M0 3.73333H19V0H0V3.73333Z" fill="#DD172C" />
	<path fill-rule="evenodd" clip-rule="evenodd" d="M0 13.9999H19V10.2666H0V13.9999Z" fill="#DD172C" />
	<path fill-rule="evenodd" clip-rule="evenodd" d="M0 10.2667H19V3.7334H0V10.2667Z" fill="#FFD133" />
	<path fill-rule="evenodd" clip-rule="evenodd" d="M4.9762 6.53343H5.88096V7.0001H4.9762V6.53343Z" fill="#FFEDB1" />
	<path d="M4.23566 6.75991C4.21998 6.56587 4.37323 6.39974 4.56791 6.39974H5.38443C5.5791 6.39974 5.73235 6.56587 5.71668 6.75991L5.62153 7.93774L5.95378 7.96458L5.62153 7.93774C5.59436 8.27402 5.31354 8.53307 4.97617 8.53307C4.6388 8.53307 4.35797 8.27402 4.3308 7.93774L4.23566 6.75991Z" stroke="#A41517" stroke-width="0.666667" />
	<path fill-rule="evenodd" clip-rule="evenodd" d="M4.07141 7H5.88093V7.46667H5.42855L4.97617 8.4L4.52379 7.46667H4.07141V7Z" fill="#A41517" />
	<rect x="2.71429" y="5.6001" width="0.904762" height="3.26667" rx="0.452381" fill="#A41517" />
	<rect x="6.33337" y="5.6001" width="0.904762" height="3.26667" rx="0.452381" fill="#A41517" />
	<path d="M4.07141 5.41317C4.07141 5.0008 4.40571 4.6665 4.81808 4.6665H5.13427C5.54664 4.6665 5.88093 5.0008 5.88093 5.41317C5.88093 5.51626 5.79736 5.59984 5.69427 5.59984H4.25808C4.15498 5.59984 4.07141 5.51626 4.07141 5.41317Z" fill="#A41517" />
</svg>